<?xml version="1.0" encoding="utf-8"?>
<!-- Generator: Adobe Illustrator 28.0.0, SVG Export Plug-In . SVG Version: 6.00 Build 0)  -->
<svg version="1.1" id="Layer_1" xmlns="http://www.w3.org/2000/svg" xmlns:xlink="http://www.w3.org/1999/xlink" x="0px" y="0px"
	 viewBox="0 0 3760.1 424.7" style="enable-background:new 0 0 3760.1 424.7;" xml:space="preserve">
<style type="text/css">
	.st0{opacity:0.997;fill-rule:evenodd;clip-rule:evenodd;fill:#FEFFFE;enable-background:new    ;}
	.st1{opacity:0.978;fill-rule:evenodd;clip-rule:evenodd;fill:#FEFFFE;enable-background:new    ;}
	.st2{opacity:0.977;fill-rule:evenodd;clip-rule:evenodd;fill:#FEFFFE;enable-background:new    ;}
	.st3{opacity:0.974;fill-rule:evenodd;clip-rule:evenodd;fill:#FEFFFE;enable-background:new    ;}
	.st4{opacity:0.981;fill-rule:evenodd;clip-rule:evenodd;fill:#FEFFFE;enable-background:new    ;}
	.st5{opacity:0.994;fill-rule:evenodd;clip-rule:evenodd;fill:#FEFFFE;enable-background:new    ;}
	.st6{opacity:0.992;fill-rule:evenodd;clip-rule:evenodd;fill:#FEFFFE;enable-background:new    ;}
	.st7{opacity:0.98;fill-rule:evenodd;clip-rule:evenodd;fill:#FEFFFE;enable-background:new    ;}
	.st8{opacity:0.982;fill-rule:evenodd;clip-rule:evenodd;fill:#FEFFFE;enable-background:new    ;}
	.st9{opacity:0.979;fill-rule:evenodd;clip-rule:evenodd;fill:#FEFFFE;enable-background:new    ;}
</style>
<g>
	<g>
		<path class="st0" d="M0,0.3c330.7,0,661.3,0,992,0c0,140.7,0,281.3,0,422c-330.7,0-661.3,0-992,0C0,281.6,0,140.9,0,0.3z"/>
	</g>
	<g>
		<path class="st1" d="M1028,0.3c21.3,0,42.7,0,64,0c0,140.7,0,281.3,0,422c-21.3,0-42.7,0-64,0C1028,281.6,1028,140.9,1028,0.3z"/>
	</g>
	<g>
		<path class="st2" d="M1127,0.3c21.3,0,42.7,0,64,0c0,140.7,0,281.3,0,422c-21.3,0-42.7,0-64,0C1127,281.6,1127,140.9,1127,0.3z"/>
	</g>
	<g>
		<path class="st3" d="M1226,0.3c22.7,0,45.3,0,68,0c0,140.7,0,281.3,0,422c-22.7,0-45.3,0-68,0C1226,281.6,1226,140.9,1226,0.3z"/>
	</g>
	<g>
		<path class="st4" d="M1330,0.3c27.7-0.2,55.3,0,83,0.5c63,6.4,110.2,36.9,141.5,91.5c3,7.3,6,14.6,9,22c4.7,14.6,7.4,29.6,8,45
			c0.7,33.3,0.7,66.7,0,100c-2.9,48-22.1,87.6-57.5,119c-28.5,25-61.8,39.5-100,43.5c-28,0.5-56,0.7-84,0.5c0-22.3,0-44.7,0-67
			c24,0.2,48,0,72-0.5c55.3-8.6,88.5-40.5,99.5-95.5c0.7-31.7,0.7-63.3,0-95c-8.8-47.8-36.3-79-82.5-93.5c-6.7-1-13.3-2-20-3
			c-23-0.5-46-0.7-69-0.5C1330,44.9,1330,22.6,1330,0.3z"/>
	</g>
	<g>
		<path class="st5" d="M1608,0.3c25,0,50,0,75,0c0,140.7,0,281.3,0,422c-25,0-50,0-75,0C1608,281.6,1608,140.9,1608,0.3z"/>
	</g>
	<g>
		<path class="st4" d="M1728,0.3c56-0.2,112,0,168,0.5c44.6,3.9,77.5,25.4,98.5,64.5c17.2,46.3,12.9,90.3-13,132
			c-23.6,32.2-55.1,52.3-94.5,60.5c-12.9,2.5-25.9,4-39,4.5c0-21.3,0-42.7,0-64c21.8,0.5,41.8-5,60-16.5
			c29.2-21.5,39.3-50,30.5-85.5c-8.5-18.2-22.6-29-42.5-32.5c-30.7-0.5-61.3-0.7-92-0.5c0,119.7,0,239.3,0,359c-25.3,0-50.7,0-76,0
			C1728,281.6,1728,140.9,1728,0.3z"/>
	</g>
	<g>
		<path class="st6" d="M2029,0.3c25,0,50,0,75,0c0,57.7,0,115.3,0,173c54.3,0,108.7,0,163,0c0-57.7,0-115.3,0-173c25,0,50,0,75,0
			c0,140.7,0,281.3,0,422c-25,0-50,0-75,0c0-57.7,0-115.3,0-173c-54.3,0-108.7,0-163,0c0,57.7,0,115.3,0,173c-25,0-50,0-75,0
			C2029,281.6,2029,140.9,2029,0.3z"/>
	</g>
	<g>
		<path class="st7" d="M2524,0.3c26.9-0.3,53.7,0,80.5,1c50.4,138.5,101,277.2,152,416c0.5,1.6,0.7,3.3,0.5,5
			c-25.2,0.3-50.4,0-75.5-1c-14.4-39.2-28.6-78.5-42.5-118c-40,0-80,0-120,0c8.3-23.9,16.6-47.9,25-72c22.6,1.3,45.3,1.3,68,0
			c-15.8-43.7-31.7-87.3-47.5-131c-0.3,0.3-0.7,0.7-1,1c-38.9,107.1-77.8,214.1-116.5,321c-25.7,0.3-51.3,0-77-1
			C2421.5,281.1,2472.8,140.7,2524,0.3z"/>
	</g>
	<g>
		<path class="st8" d="M2913,0.3c22.7-0.3,45.4,0.5,68,2.5c23.8,3.1,47.4,6.6,71,10.5c-3.7,25.3-7.3,50.7-11,76
			c-22.7-3.1-45.3-6.3-68-9.5c-30.2-4-60.2-3-90,3c-11,3-21,7.9-30,14.5c-3,5.1-5.9,10.4-8.5,16c-3.8,15.8-2.6,31.1,3.5,46
			c5.2,6.4,11.9,10.6,20,12.5c5.3,1,10.7,2,16,3c26,0.3,52,0.7,78,1c56.1,6.4,92,36.6,107.5,90.5c7.7,55-10.8,98.9-55.5,131.5
			c-35.9,21.1-74.9,29.1-117,24c-40.1-1.9-79.7-6.7-119-14.5c5.3-25,10.7-50,16-75c40.6,7.6,81.6,11.9,123,13
			c19.4,0.6,37.4-3.7,54-13c21.2-15.5,27.1-35.5,17.5-60c-8.2-11.5-19.4-18-33.5-19.5c-26-0.3-52-0.7-78-1c-28.2-2-53.5-11.4-76-28
			c-25.6-24.5-37.9-54.9-37-91c0.2-56.4,25.8-95.7,77-118C2864.5,6.7,2888.5,1.9,2913,0.3z"/>
	</g>
	<g>
		<path class="st7" d="M3222,0.3c26.7,0,53.3,0,80,0c50.6,140.3,101.6,280.7,153,421c-25.3,1.3-50.7,1.3-76,0
			c-14.3-39.2-28.7-78.5-43-118c-40,0-80,0-120,0c8.3-23.8,17-47.7,26-71.5c22.3,0.5,44.6,0.6,67,0.5c-15.6-44.2-31.4-88.2-47.5-132
			c-39.2,107.3-78.3,214.7-117.5,322c-25.3,0-50.7,0-76,0C3118.4,281.4,3169.7,140.7,3222,0.3z"/>
	</g>
	<g>
		<path class="st9" d="M3653,0.3c37.4-1.7,73.1,4.9,107,20c0.3,28,0,56-1,84c-50.6-38.9-104.6-44.1-162-15.5
			c-60.5,39.7-82.4,95.2-65.5,166.5c23.7,62.5,69.1,95.5,136,99c34.4-0.8,64.9-11.8,91.5-33c1.3,27.7,1.3,55.3,0,83
			c-44.8,20.3-91.4,25.5-140,15.5c-87.6-24.3-141.4-80.8-161.5-169.5c-10.9-77.5,11.6-143,67.5-196.5C3561.8,22,3604.5,4.2,3653,0.3
			z"/>
	</g>
</g>
</svg>
