<svg width="381" height="108" viewBox="0 0 381 108" fill="none" xmlns="http://www.w3.org/2000/svg">
<g clip-path="url(#clip0_648_2)">
<path d="M0 83.424C1.89199 84.1492 5.94204 84.8744 10.6425 84.8744C19.1269 84.8744 24.9802 81.6782 29.7398 74.3188C34.8836 66.3417 38.5493 52.9122 39.0519 37.4414C39.3771 25.6503 37.692 17.6732 34.7358 12.3283C31.6022 6.49988 26.8426 3.62596 20.7528 3.62596C16.9688 3.62596 13.2439 4.21686 9.9034 5.39866L0 83.424ZM16.7323 17.8881C17.6192 17.5389 18.8312 17.4046 20.2798 17.4046C27.1974 17.4046 30.3606 24.9251 29.9467 37.522C29.6215 47.1644 27.9365 55.4907 25.0689 61.6682C22.3196 67.7384 18.1809 71.0689 13.6578 71.0689C12.2093 71.0689 10.9972 70.9346 10.0216 70.5854L16.7323 17.8881ZM47.5954 84.4447L54.9565 26.2681H46.5903L39.2588 84.4447H47.625H47.5954ZM52.0594 18.9893C54.72 18.9893 57.1145 15.4171 57.3215 9.34693C57.4693 4.21686 55.8433 0.886347 53.4192 0.886347C50.9951 0.886347 48.5119 4.80776 48.2754 10.6362C48.098 15.7662 49.7535 18.9624 52.0594 18.9624V18.9893ZM59.8638 108L62.9974 83.3703H63.1157C64.0617 84.579 66.0128 85.7608 68.3482 85.7608C78.1925 85.7608 85.3762 67.2012 86.0561 46.9764C86.47 35.0778 83.8389 24.952 77.6604 24.952C74.2607 24.952 70.7723 28.39 68.23 34.7018H68.1117L68.9099 26.2412H61.4011C60.8394 32.1771 59.8343 41.8194 58.9474 48.7222L51.4977 107.973H59.8047L59.8638 108ZM66.2197 57.4514C67.6387 46.0363 70.8019 38.7844 73.906 38.7844C76.6257 38.7844 77.3943 43.6727 77.2169 48.3193C76.8326 59.7344 72.9304 72.8147 68.4665 72.8147C66.8405 72.8147 65.5989 71.7404 64.7416 69.9677L66.2197 57.4782V57.4514ZM95.6047 84.4984L98.9453 57.8543C100.453 46.0632 103.646 38.8112 106.543 38.8112C108.642 38.8112 109.351 41.5509 109.233 45.3648C109.144 47.8627 108.878 50.3606 108.583 52.6168L104.621 84.4984H112.987L117.185 51.1932C117.599 47.8627 117.983 43.4578 118.072 40.7182C118.397 30.7267 115.855 25.0057 111.45 25.0057C107.666 25.0057 104.592 28.4437 102.108 33.8155L101.99 33.6812L106.218 0H97.8515L87.2386 84.4715H95.6047V84.4984ZM146.245 84.5521C146.363 77.3002 147.28 65.8851 148.226 58.3646L152.276 27.9065C149.94 26.3487 146.334 25.0326 142.964 25.0326C128.981 25.0326 121.945 45.9557 121.294 65.5897C120.881 77.7299 124.073 85.8413 129.217 85.8413C132.528 85.8413 136.223 82.6451 139.18 73.0027H139.357C139.032 77.1659 138.736 81.1142 138.559 84.5521H146.275H146.245ZM140.717 51.9453C138.943 66.2343 135.691 72.0358 133.179 72.0358C130.873 72.0358 129.868 68.1144 130.074 62.3934C130.429 51.5693 134.834 38.0055 140.244 38.0055C141.042 38.0055 141.87 38.2472 142.491 38.4889L140.717 51.9453ZM155.143 47.2987L153.636 59.3315H168.683L170.191 47.3255H155.143V47.2987ZM168.594 84.579H197.684L199.517 69.8602H182.045V69.3499L206.168 15.0948L207.528 4.40487H180.331L178.439 19.1236H194.343V19.6071L169.777 74.668L168.565 84.5521L168.594 84.579ZM211.519 84.6058L218.88 26.4292H210.514L203.153 84.6058H211.519ZM215.953 19.1773C218.614 19.1773 221.008 15.6051 221.215 9.53494C221.393 4.40487 219.737 1.07436 217.313 1.07436C214.889 1.07436 212.406 4.99577 212.169 10.8242C212.021 15.9542 213.647 19.1505 215.953 19.1505V19.1773ZM226.891 84.6327L230.143 58.8212C231.74 45.9557 235.169 38.9455 237.889 38.9455C239.987 38.9455 240.579 41.8194 240.431 45.8483C240.372 47.997 240.165 50.3606 239.928 52.375L235.878 84.6327H244.244L248.501 50.8441C248.827 47.997 249.211 43.5921 249.3 40.96C249.625 30.9684 247.201 25.14 242.559 25.1132C238.775 25.1132 235.139 28.4437 232.213 36.0448H232.094L233.011 26.4024H225.591C225.058 31.5056 224.378 37.9249 223.432 45.3111L218.525 84.579H226.891V84.6327ZM272.624 69.8065C271.146 70.9883 269.343 72.197 266.919 72.1701C263.785 72.1701 261.479 68.1144 261.745 60.1373C262.13 49.2057 266.121 38.8381 272.092 38.865C273.777 38.865 274.901 39.4559 275.876 40.2885L278.359 27.2082C277.177 26.1338 275.108 25.1937 272.683 25.1669C261.864 25.1669 253.616 41.336 252.906 62.0443C252.404 77.139 257.045 85.8413 264.081 85.8413C267.451 85.8413 270.407 84.6595 272.24 82.8868L272.624 69.7797V69.8065ZM279.542 47.433L278.034 59.4658H293.081L294.589 47.4598H279.542V47.433ZM295.535 84.7133H303.783L307.183 57.9617L311.617 49.8771L316.997 84.767H326.073L318.535 39.1873L335.533 4.56603H325.068L313.302 31.1833C312.09 34.0303 310.789 36.9043 309.518 40.3422H309.341L313.864 4.51231H305.616L295.476 84.7133H295.535ZM337.809 84.767L345.141 26.5635H336.775L329.414 84.7401H337.78L337.809 84.767ZM342.273 19.3116C344.934 19.3116 347.328 15.7394 347.535 9.66924C347.713 4.56603 346.087 1.23551 343.633 1.23551C341.061 1.23551 338.726 5.15693 338.489 10.9853C338.312 16.1154 339.967 19.3116 342.273 19.3385V19.3116ZM372.634 0.295449L369.323 26.5904C368.111 25.6235 366.633 25.2743 365.45 25.2743C354.749 25.2743 346.974 43.8339 346.294 64.0587C345.821 78.2134 349.575 86.0831 354.394 86.0831C357.705 86.0831 361.252 83.1286 364.031 75.3932H364.149L363.41 84.7938H371.097C371.451 77.8911 372.25 69.6991 373.196 62.1786L381 0.322308H372.634V0.295449ZM365.628 56.001C364.149 67.0669 361.016 72.3044 358.651 72.3044C356.286 72.3044 354.837 68.3561 355.074 61.3459C355.429 50.1726 359.39 38.2741 364.356 38.2741C365.746 38.2741 366.987 39.2141 367.608 40.2885L365.628 56.001Z" fill="#6B6B6B"/>
</g>
<defs>
<clipPath id="clip0_648_2">
<rect width="381" height="108" fill="white"/>
</clipPath>
</defs>
</svg>
