<svg width="365" height="82" viewBox="0 0 365 82" fill="none" xmlns="http://www.w3.org/2000/svg">
<g clip-path="url(#clip0_650_173)">
<path d="M58.1974 0V82H43.762C43.762 81.647 43.762 81.2793 43.7326 80.9116C43.7179 80.6615 43.7032 80.4115 43.6885 80.1467C43.468 75.087 42.1744 72.4542 40.0429 68.174C39.3373 66.6149 38.5288 65.1882 37.6321 64.0262C37.6027 63.9968 37.588 63.9526 37.5586 63.9232C32.3107 56.216 24.1817 52.9213 14.6855 51.0827C12.4364 50.6561 10.1432 50.4208 7.7765 50.4208L0.632324 50.3178V37.6244C2.82262 37.6979 4.23381 37.8156 5.82141 37.9921C9.0113 38.3304 11.966 38.7275 14.7002 39.1688C16.8023 39.5071 18.7868 39.8748 20.639 40.2572C20.6978 40.2719 20.8007 40.2866 20.8448 40.3013C22.9175 40.7132 24.8138 41.2427 26.5778 41.831C28.5328 42.4635 30.2821 43.1989 31.8697 43.9491H31.8844C39.6313 47.6409 43.3063 52.1417 43.7326 52.4359C43.762 52.4359 43.7767 48.1557 43.7767 48.1557V0H58.2121H58.1974Z" fill="#6B6B6B"/>
<path d="M112.47 26.0782L112.381 25.8722C112.014 25.1956 111.573 24.5043 111.102 23.813C109.015 20.739 106.325 18.2973 103.091 16.5176C99.2102 14.4143 94.7708 13.3406 89.8463 13.3406C83.8487 13.3406 78.5862 14.8556 74.2644 17.8414C69.972 20.7978 66.6498 24.7691 64.4154 29.6817C63.6657 31.3144 63.0336 33.0059 62.5632 34.7709C61.593 38.1686 61.1079 41.7721 61.1079 45.5669C61.1079 46.4347 61.1373 47.2878 61.1961 48.1262C61.4754 53.0389 62.6367 57.6721 64.6653 61.9228C67.0908 66.9678 70.7217 71.0715 75.3963 74.1162C80.115 77.1608 85.9949 78.7052 92.8304 78.7052C96.7847 78.7052 100.43 78.264 103.635 77.3668C106.31 76.646 108.706 75.8077 110.794 74.9104L111.249 74.7045V59.187L108.192 60.7167C106.075 61.7757 103.708 62.57 101.209 63.0554C98.6663 63.5555 96.3143 63.8202 94.1828 63.8202C90.9194 63.8202 88.1117 63.2466 85.6862 62.0699C83.3637 60.9521 81.4968 59.1576 79.9827 56.613C78.8508 54.7009 78.057 52.2299 77.5866 49.3029C77.5425 49.1411 77.5278 48.9793 77.4984 48.8028H114.851L115.204 46.4642C115.365 45.4493 115.483 44.3903 115.586 43.3018C115.659 42.1546 115.704 41.2132 115.704 40.4043C115.704 34.8886 114.616 30.0642 112.484 26.0782H112.47ZM78.7332 35.9917C78.7626 35.9182 78.7773 35.8299 78.8067 35.7711C79.5858 33.7119 80.6295 32.0498 81.9378 30.8437C83.8341 29.0934 86.3918 28.2256 89.7875 28.2256C92.1101 28.2256 94.0064 28.6521 95.4176 29.5052C96.7847 30.3436 97.7696 31.4615 98.4311 32.9176C98.8427 33.8737 99.1367 34.9033 99.3278 35.977H78.7332V35.9917Z" fill="#6B6B6B"/>
<path d="M171.799 14.5173C177.767 14.5173 182.662 15.7234 186.322 18.1062C190.188 20.5478 192.79 23.8131 194.04 27.7991C195.142 31.3733 195.715 35.6535 195.715 40.522V75.7048H179.545V40.522C179.545 35.7564 178.325 32.8 175.826 31.4615C175.209 31.1233 173.019 30.329 166.213 30.329H164.625V75.7048H148.455V30.329H134.696V75.7048H118.526V14.5173H171.828H171.799Z" fill="#6B6B6B"/>
<path d="M244.431 14.5173V23.2395C244.431 27.0931 243.49 30.8291 241.623 34.315C239.83 37.6391 237.566 40.6838 234.832 43.3166C232.318 45.7877 229.672 48.1998 226.997 50.465C224.468 52.5977 222.028 54.9069 219.72 57.3338C219.044 58.0398 218.427 58.7606 217.883 59.4372H245.239V75.7048H198.538V68.0269C198.538 63.8938 199.464 59.8931 201.301 56.1719C203.08 52.5683 205.329 49.3471 208.019 46.6113C210.518 44.052 213.105 41.5957 215.707 39.3453C218.162 37.1979 220.558 34.9181 222.778 32.55C223.351 31.9616 223.851 31.3733 224.336 30.7997H198.641V14.532H244.416L244.431 14.5173Z" fill="#6B6B6B"/>
<path d="M279.358 13.679C262.085 13.679 248.047 27.7991 248.047 45.1699C248.047 62.5407 262.1 76.6755 279.358 76.6755C296.616 76.6755 310.683 62.5554 310.683 45.1699C310.683 27.7844 296.63 13.679 279.358 13.679ZM279.358 59.6431C271.434 59.6431 264.967 53.1419 264.967 45.1699C264.967 37.1979 271.434 30.6967 279.358 30.6967C287.281 30.6967 293.764 37.1979 293.764 45.1699C293.764 53.1419 287.31 59.6431 279.358 59.6431Z" fill="#6B6B6B"/>
<path d="M336.291 14.5173C345.464 14.5173 351.946 15.9441 356.15 18.8416C360.002 21.4598 362.501 24.6956 363.574 28.5051C364.529 31.8734 365 36.2565 365 41.5663V75.7048H348.83V41.684C348.83 40.419 348.786 39.3159 348.712 38.4334C348.653 37.7127 348.433 36.6978 348.051 35.4328C347.713 34.3591 347.272 33.506 346.742 32.903C346.213 32.2705 345.346 31.6969 344.155 31.1527C342.965 30.6232 341.436 30.3437 339.613 30.3437H329.69V75.7195H313.521V14.5173H336.305H336.291Z" fill="#6B6B6B"/>
<path d="M88.3762 48.7882H74.9551C70.1041 48.6264 63.2539 48.6264 58.1971 48.3616C56.977 48.3028 55.8598 48.2292 54.9043 48.1263C50.8472 47.7291 47.1575 47.2143 43.7618 46.6701C42.1742 46.4054 40.6454 46.1406 39.2048 45.8612C39.146 45.8465 39.0431 45.8317 38.9843 45.817C36.3824 45.3022 34.0157 44.6698 31.8695 43.9638H31.8548C29.9144 43.3019 28.1504 42.5665 26.5628 41.831C18.8453 38.2127 15.1704 33.9767 14.7294 33.6825C14.7 33.6825 14.6853 37.9627 14.6853 37.9627V82H0V0H14.6853C14.6853 0.353004 14.6853 0.720717 14.7147 1.08843C14.7294 1.33848 14.7441 1.58852 14.7588 1.85327C14.994 6.913 16.3611 11.0902 18.6248 15.3704C19.3892 16.9295 20.2271 18.3562 21.1973 19.5182C21.2267 19.5476 21.2414 19.5917 21.2708 19.6212C26.504 26.8725 34.4714 32.2264 43.7618 34.3591C46.6724 35.021 58.1971 35.7711 58.1971 35.7711L75.0874 36.0065L78.2038 36.08L88.3615 48.7882H88.3762Z" fill="url(#paint0_linear_650_173)"/>
</g>
<defs>
<linearGradient id="paint0_linear_650_173" x1="89.9197" y1="41.0074" x2="-8.46717" y2="41.0074" gradientUnits="userSpaceOnUse">
<stop stop-color="#6C6C6C"/>
<stop offset="0.13" stop-color="#777777"/>
<stop offset="0.37" stop-color="#969696"/>
<stop offset="0.69" stop-color="#C7C7C7"/>
<stop offset="1" stop-color="white"/>
</linearGradient>
<clipPath id="clip0_650_173">
<rect width="365" height="82" fill="white"/>
</clipPath>
</defs>
</svg>
