<svg width="42" height="41" viewBox="0 0 42 41" fill="none" xmlns="http://www.w3.org/2000/svg">
<path d="M41.3451 20.5395C41.3451 22.512 41.3845 24.5239 41.3451 26.4963C41.2662 28.5476 41.2662 30.6384 40.7142 32.6108C39.6891 36.2401 37.4024 38.7648 33.8146 39.9877C32.0798 40.5795 30.3056 40.7373 28.492 40.7767C24.2339 40.8162 19.9364 40.8556 15.6784 40.8556C13.9436 40.8556 12.2483 40.7767 10.5135 40.54C7.12284 40.1061 4.40241 38.4887 2.54936 35.5695C1.5637 34.031 1.01172 32.2953 0.893445 30.4806C0.735739 28.0348 0.656887 25.589 0.617461 23.1432C0.578034 20.224 0.578034 17.3048 0.617461 14.3856C0.656887 12.3737 0.696313 10.3618 1.24828 8.38936C2.27337 4.72063 4.59953 2.19592 8.22677 0.973013C10.1192 0.341834 12.0512 0.223487 14.0225 0.184038C18.3594 0.184038 22.6963 0.105142 27.0332 0.144591C29.1228 0.144591 31.2519 0.223487 33.2626 0.854666C37.2053 2.07757 39.6891 4.72064 40.7142 8.70495C41.1085 10.2829 41.2268 11.9003 41.2268 13.5571C41.2268 15.8846 41.2268 18.2121 41.2268 20.579C41.2268 20.579 41.2662 20.579 41.3056 20.579L41.3451 20.5395ZM20.5279 3.81332C17.2949 3.81332 14.0619 3.69497 10.8684 4.1289C9.56728 4.32615 8.34506 4.76008 7.31997 5.58851C5.5852 6.92976 4.79667 8.8233 4.59954 10.9141C4.44183 12.4131 4.4024 13.9122 4.36298 15.4112C4.36298 17.1864 4.36298 18.9222 4.36298 20.6973C4.36298 24.011 4.2447 27.3642 4.6784 30.6384C4.87553 31.9402 5.30921 33.1631 6.17659 34.2282C7.51709 35.964 9.37015 36.7135 11.4992 36.9108C12.9185 37.0685 14.3773 37.1474 15.7967 37.1474C20.4884 37.1474 25.2196 37.0685 29.9114 36.9896C31.2519 36.9896 32.5924 36.6741 33.8146 36.0034C36.1802 34.7411 37.2447 32.6108 37.5207 30.0467C37.6784 28.5082 37.7178 26.9697 37.7572 25.4312C37.7572 21.6441 37.7572 17.8965 37.7572 14.1094C37.7572 12.4131 37.7178 10.6774 37.2053 9.02054C36.5745 6.92976 35.2734 5.43071 33.2232 4.60229C31.8038 4.01056 30.3056 3.85277 28.768 3.85277C26.2447 3.81332 20.8038 3.77387 20.6461 3.77387L20.5279 3.81332Z" fill="black"/>
<path d="M10.5527 20.5C10.5527 14.7011 15.2839 10.0067 21.0008 10.0461C26.9936 10.0461 31.4882 14.9378 31.4882 20.5C31.4882 26.299 26.6782 30.9934 21.0008 30.9539C15.3233 30.9539 10.5922 26.299 10.5922 20.4606L10.5527 20.5ZM21.0008 27.2852C24.7463 27.2852 27.7821 24.2477 27.8216 20.5395C27.8216 16.713 24.7069 13.6754 21.0402 13.7149C17.2552 13.7149 14.2588 16.7524 14.2588 20.5C14.2588 24.2477 17.2947 27.2852 21.0008 27.2852Z" fill="black"/>
<path d="M34.3274 9.65177C34.3274 10.993 33.1446 12.0976 31.8435 12.0976C30.503 12.0976 29.3991 10.9536 29.4385 9.61232C29.478 8.19217 30.503 7.20595 31.9224 7.1665C33.2629 7.1665 34.3668 8.34996 34.3668 9.65177H34.3274Z" fill="black"/>
</svg>
