<svg width="64" height="64" viewBox="0 0 64 64" fill="none" xmlns="http://www.w3.org/2000/svg">
<path d="M0.5 32C0.5 14.603 14.603 0.5 32 0.5C49.397 0.5 63.5 14.603 63.5 32C63.5 49.397 49.397 63.5 32 63.5C14.603 63.5 0.5 49.397 0.5 32Z" fill="white" stroke="#0F5F9C"/>
<path d="M38.9996 41L38.9996 23C38.999 22.8178 38.9488 22.6392 38.8542 22.4834C38.7597 22.3276 38.6245 22.2005 38.4631 22.1158C38.3017 22.0312 38.1203 21.9922 37.9383 22.0029C37.7564 22.0137 37.5809 22.0739 37.4306 22.177L24.4306 31.177C23.8916 31.55 23.8916 32.448 24.4306 32.822L37.4306 41.822C37.5806 41.9262 37.7562 41.9873 37.9384 41.9987C38.1206 42.01 38.3025 41.9713 38.4642 41.8865C38.626 41.8018 38.7614 41.6744 38.8558 41.5181C38.9502 41.3618 38.9999 41.1826 38.9996 41Z" fill="#0F5F9C"/>
</svg>
