<svg width="356" height="67" viewBox="0 0 356 67" fill="none" xmlns="http://www.w3.org/2000/svg">
<g clip-path="url(#clip0_648_4)">
<path fill-rule="evenodd" clip-rule="evenodd" d="M40.5856 1.72458H48.1035V66.0802H38.6354L7.51794 15.0901V66.0802H0V1.72458H8.02668L40.5573 54.8992V1.72458H40.5856ZM86.1737 33.2844C86.1737 31.9622 85.8628 30.755 85.241 29.6915C84.6192 28.6281 83.7996 27.737 82.7822 27.0184C81.7647 26.2999 80.6059 25.7538 79.3058 25.3801C78.0057 25.0352 76.6491 24.834 75.2642 24.834C73.1728 24.834 71.0813 25.2364 69.0181 26.0699C66.9266 26.9035 65.2026 28.1682 63.8177 29.9215L59.3522 25.4663C61.5002 23.0519 64.0438 21.2124 66.9832 19.9764C69.9508 18.7405 72.8619 18.1081 75.8012 18.1081C78.0057 18.1081 80.1537 18.4243 82.2734 19.0566C84.3931 19.689 86.2585 20.6375 87.8978 21.8734C89.537 23.1094 90.8371 24.6903 91.8263 26.5873C92.8155 28.4843 93.296 30.7263 93.296 33.2844V63.8383C90.074 64.988 86.852 65.7928 83.63 66.2814C80.7755 66.7701 77.9492 67 75.1512 67H74.162C71.8444 67 69.6682 66.6838 67.6332 66.0802C65.6265 65.4766 63.8742 64.5568 62.4046 63.3496C60.9349 62.1424 59.7761 60.619 58.9282 58.8082C58.0803 56.9974 57.6281 54.813 57.6281 52.2836C57.6281 49.7542 58.1369 47.426 59.0978 45.5577C60.087 43.6894 61.3871 42.1373 62.9981 40.9301C64.6091 39.7229 66.4462 38.8031 68.5376 38.1995C70.6291 37.5959 72.8053 37.2797 75.0664 37.2797C78.9384 37.2797 82.6408 38.027 86.1454 39.5504V33.2844H86.1737ZM75.8012 42.9996C74.3598 42.9996 72.9749 43.172 71.6466 43.4882C70.3182 43.8331 69.1312 44.3505 68.1137 45.0691C67.0962 45.7876 66.2766 46.7649 65.6548 47.9434C65.033 49.1218 64.7221 50.559 64.7221 52.2548C64.7221 55.2728 65.6548 57.4286 67.4919 58.7508C69.329 60.0442 71.6183 60.734 74.3598 60.7915H76.3382C77.6383 60.7915 78.9667 60.7915 80.2668 60.7053C82.3017 60.5903 84.2518 60.3029 86.1737 59.9005V44.8104C84.7323 44.3218 83.1213 43.8906 81.3408 43.5457C79.5602 43.2008 77.6948 42.9996 75.8012 42.9996ZM119.863 67C117.546 67 115.369 66.6551 113.391 65.9653C111.384 65.2754 109.688 64.2407 108.247 62.9185C106.806 61.5963 105.703 59.958 104.884 58.0609C104.064 56.1639 103.668 53.9794 103.668 51.565V7.09953H110.734V18.9991H120.202V25.725H110.734V51.5363C110.734 52.8584 111.017 54.1519 111.526 55.3878C112.063 56.6238 112.854 57.6873 113.9 58.5496C114.945 59.4118 116.161 60.0442 117.602 60.4178C118.365 60.6478 119.213 60.7628 120.089 60.7628C120.881 60.7628 121.7 60.6765 122.605 60.5041V66.7701C122.124 66.8275 121.672 66.885 121.22 66.9138C120.768 66.9425 120.315 66.9713 119.835 66.9713L119.863 67ZM146.572 67C144.367 67 142.219 66.6551 140.128 65.994C138.036 65.3329 136.171 64.3556 134.532 63.0335C132.892 61.74 131.564 60.1017 130.547 58.1759C129.529 56.2214 129.02 53.9794 129.02 51.3638V18.9991H136.171V51.45C136.171 52.8297 136.453 54.0656 137.075 55.1291C137.669 56.1926 138.46 57.0837 139.449 57.8022C140.439 58.5208 141.541 59.0957 142.756 59.4981C143.971 59.9005 145.243 60.1017 146.543 60.1017C148.635 60.1017 150.585 59.9867 152.394 59.728C154.203 59.4981 155.898 59.0957 157.453 58.5496V18.9991H164.603V63.5508C162.455 64.3556 160.505 64.9592 158.696 65.4191C156.916 65.879 155.277 66.2239 153.779 66.4539C152.281 66.7126 150.952 66.8563 149.737 66.9138C148.55 66.9713 147.476 67 146.515 67H146.572ZM201.713 18.9991H215.024L198.491 66.0802H186.79L170.341 18.9991H183.568L190.521 42.7121L192.499 54.8992H192.753L194.732 42.7121L201.713 18.9991ZM216.833 52.0824C216.833 49.3518 217.285 47.0236 218.218 45.0978C219.123 43.1433 220.366 41.5624 221.892 40.3265C223.419 39.0905 225.171 38.1707 227.149 37.5959C229.156 37.021 231.191 36.7336 233.282 36.7336C236.024 36.7336 238.765 37.2222 241.507 38.1995V34.8366C241.507 32.3647 240.8 30.6401 239.359 29.6915C237.946 28.743 236.278 28.2831 234.356 28.2831C232.632 28.2831 230.852 28.7143 229.043 29.5766C227.234 30.4101 225.764 31.4449 224.606 32.6521L218.529 26.0124C220.903 23.2244 223.475 21.2124 226.245 20.0051C229.015 18.7979 232.01 18.1656 235.232 18.1081C237.55 18.1081 239.811 18.453 241.987 19.1141C244.164 19.7752 246.114 20.81 247.781 22.1896C249.477 23.5693 250.862 25.3226 251.908 27.4208C252.953 29.5191 253.462 31.991 253.462 34.8366V63.5508C250.721 64.5856 247.866 65.4191 244.842 66.0515C241.846 66.6838 238.907 67 236.052 67C229.495 67 224.662 65.6491 221.525 62.9472C218.388 60.2454 216.833 56.6238 216.833 52.0824ZM235.515 45.9888C233.141 45.9888 231.389 46.5062 230.286 47.5697C229.184 48.6332 228.619 50.0129 228.619 51.7087C228.619 53.4045 229.184 54.7555 230.371 55.7615C231.53 56.7675 233.367 57.2561 235.854 57.2561C237.748 57.2561 239.5 57.0549 241.111 56.6238V47.0811C240.405 46.7649 239.528 46.5062 238.511 46.305C237.493 46.0751 236.504 45.9888 235.487 45.9888H235.515ZM280.199 18.0794C281.923 18.0794 284.099 18.3955 286.728 18.9991V29.1742C285.597 28.858 284.438 28.7143 283.251 28.7143H282.629C281.188 28.7718 279.86 29.0305 278.644 29.5478C277.429 30.0365 276.44 30.7263 275.648 31.6461C274.885 32.5659 274.49 33.6868 274.49 35.009V66.109H262.082V34.8366C262.082 32.0485 262.648 29.5766 263.721 27.4783C264.824 25.3514 266.237 23.6268 267.961 22.2471C269.685 20.8674 271.635 19.8614 273.811 19.1716C275.988 18.453 278.107 18.1081 280.199 18.1081V18.0794ZM298.881 0C301.029 0 302.837 0.776062 304.335 2.2707C305.833 3.79408 306.568 5.63363 306.568 7.8181C306.568 10.0026 305.833 11.9284 304.335 13.4517C302.837 14.9751 301.029 15.7224 298.881 15.7224C296.733 15.7224 294.952 14.9751 293.482 13.4517C292.013 11.9284 291.306 10.0601 291.306 7.8181C291.306 5.57615 292.041 3.79408 293.482 2.2707C294.952 0.747319 296.761 0 298.881 0ZM305.325 66.0802H292.634V19.1141H305.325V66.109V66.0802ZM340.455 42.4535C341.586 44.1493 342.829 46.0463 344.214 48.1446C345.571 50.2428 346.956 52.3411 348.312 54.468C349.669 56.595 351.026 58.6645 352.382 60.6765C353.711 62.7173 354.926 64.5281 356 66.0802H341.275L335.283 56.2789L333.503 51.4788H332.881L330.818 56.48C330.055 57.6873 329.207 59.0382 328.331 60.5328C327.426 62.0275 326.267 63.867 324.826 66.109H310.808L325.815 42.5684C325.165 41.5912 324.515 40.5564 323.837 39.4354C323.187 38.3145 322.311 36.8773 321.237 35.1527C320.163 33.4281 318.806 31.2724 317.167 28.7143C315.527 26.1274 313.379 22.9082 310.779 19.0279H324.798L331.242 29.749L332.937 34.2042H333.474L335.085 29.749C335.735 28.7143 336.583 27.2771 337.601 25.4376C338.618 23.598 339.834 21.4423 341.275 19.0279H355.83L340.455 42.4822V42.4535Z" fill="#6B6B6B"/>
</g>
<defs>
<clipPath id="clip0_648_4">
<rect width="356" height="67" fill="white"/>
</clipPath>
</defs>
</svg>
