<svg width="373" height="133" viewBox="0 0 373 133" fill="none" xmlns="http://www.w3.org/2000/svg">
<g clip-path="url(#clip0_651_218)">
<path d="M157.554 34.3173C163.351 34.3173 168.05 29.3641 168.05 23.2541C168.05 17.1441 163.351 12.1909 157.554 12.1909C151.758 12.1909 147.059 17.1441 147.059 23.2541C147.059 29.3641 151.758 34.3173 157.554 34.3173Z" fill="#6B6B6B"/>
<path d="M161.326 124.79C159.701 120.993 158.329 117.052 157.295 113.002C156.25 108.958 155.475 104.81 155.056 100.61C154.832 98.5103 154.683 96.3989 154.608 94.2817C154.557 93.2232 154.574 92.1646 154.568 91.1003C154.58 90.0359 154.545 88.9716 154.597 87.9073C154.712 85.7844 154.786 83.6443 155.028 81.5156L155.177 79.9105C155.223 79.3755 155.28 78.8404 155.366 78.3111L155.831 75.1124C155.894 74.5774 155.992 74.0423 156.095 73.5131L156.4 71.9194C156.606 70.8609 156.784 69.7851 157.06 68.738L157.818 65.5623C158.088 64.5095 158.415 63.4682 158.714 62.4153L159.173 60.839L159.695 59.2857C160.051 58.2501 160.396 57.203 160.769 56.1675C161.584 54.1309 162.348 52.0483 163.301 50.0577C166.935 41.9919 171.787 34.3402 177.787 27.5919C189.724 14.0606 206.449 4.42991 224.345 1.1449L226.022 0.839983C226.579 0.742181 227.147 0.696156 227.71 0.615613C228.835 0.471785 229.961 0.345217 231.086 0.235908C232.217 0.149612 233.348 0.103587 234.479 0.0575625L236.167 -0.0114746L237.861 0.0172909C238.986 0.0345501 240.112 0.0690687 241.237 0.120847C242.362 0.207143 243.482 0.327958 244.596 0.431514C245.153 0.489044 245.71 0.540822 246.267 0.621366L247.926 0.891761C249.028 1.09312 250.131 1.25996 251.221 1.49008C255.579 2.42784 259.828 3.80283 263.847 5.63806C267.855 7.49631 271.667 9.72851 275.026 12.6396L274.882 13.0653C270.479 13.3587 266.345 13.514 262.303 13.8535C258.272 14.1699 254.368 14.5841 250.544 15.1192L247.696 15.5679L246.284 15.7693C245.813 15.8383 245.348 15.9534 244.883 16.0282C243.953 16.195 243.023 16.3733 242.098 16.5172C241.179 16.707 240.261 16.9199 239.348 17.0982L237.981 17.3744L236.626 17.7023C235.725 17.9267 234.824 18.128 233.928 18.3351C232.154 18.8587 230.362 19.2441 228.617 19.8079C225.097 20.8032 221.658 22.0229 218.271 23.3288L215.744 24.3529L213.258 25.4747L212.012 26.0385L210.795 26.6541C209.986 27.0683 209.159 27.4595 208.355 27.8795C205.14 29.5997 202.011 31.4752 198.95 33.5003C198.187 34.0066 197.446 34.5474 196.688 35.0709L195.557 35.8648L194.466 36.7105C193.737 37.2686 192.973 37.8036 192.261 38.3847L190.12 40.1509L189.574 40.5881L189.052 41.0484L188.007 41.9746C187.312 42.5959 186.6 43.2 185.946 43.8616L183.913 45.8004L181.967 47.837C181.64 48.1764 181.301 48.5101 180.985 48.8553L180.055 49.9196C179.441 50.633 178.786 51.3234 178.195 52.0655L176.421 54.292L175.973 54.85L175.559 55.4311L174.721 56.5875C173.561 58.112 172.568 59.7459 171.506 61.351C171.006 62.1737 170.535 63.0079 170.042 63.8421L169.312 65.0963L168.646 66.385C166.798 69.8023 165.334 73.4153 164.007 77.1145C161.487 84.5417 160.04 92.435 159.695 100.443C159.604 102.445 159.592 104.453 159.632 106.473C159.667 108.486 159.759 110.511 159.942 112.531C160.126 114.55 160.356 116.569 160.648 118.594C160.947 120.614 161.326 122.627 161.739 124.641L161.314 124.779L161.326 124.79Z" fill="#6B6B6B"/>
<path d="M101.08 34.2425C106.689 30.7849 113.166 29.1452 119.86 29.0302C123.208 29.0014 126.607 29.4329 129.925 30.3304C133.244 31.2221 136.477 32.6086 139.428 34.4726C142.379 36.3308 145.026 38.6781 147.207 41.3533C149.395 44.0342 151.129 47.0086 152.49 50.0577C153.856 53.1126 154.855 56.2538 155.561 59.4065C156.273 62.5477 156.538 65.8039 155.871 68.9911C154.402 66.0916 153.236 63.3474 151.916 60.7009C150.595 58.0603 148.89 55.6555 147.007 53.5038C145.112 51.3637 143.016 49.4939 140.817 47.8773C138.618 46.2664 136.362 44.8569 134.036 43.597C129.391 41.0714 124.368 39.2304 118.884 37.8439C116.14 37.1593 113.292 36.5725 110.329 36.0029C107.361 35.4218 104.307 34.9961 101.068 34.2425H101.08Z" fill="#6B6B6B"/>
<path d="M234.266 43.5681C234.106 43.6026 233.951 43.6314 233.796 43.6544C232.544 43.499 231.304 43.4242 230.087 43.4242C229.484 43.4242 228.869 43.453 228.261 43.5105C231.045 43.1251 233.285 43.3897 234.266 43.5623V43.5681Z" fill="#6B6B6B"/>
<path d="M258.652 47.2155L237.408 120.038L230.983 119.67C226.028 119.463 222.681 114.78 224.082 110.034L245.567 37.3145L253.346 37.5791C258.319 37.7459 260.041 42.452 258.652 47.2155Z" fill="#6B6B6B"/>
<path d="M231.224 32.2404C225.66 32.2404 220.539 33.3622 215.842 35.5944C211.146 37.8266 207.058 40.9218 203.572 44.8684C200.087 48.8093 197.624 53.0608 196.166 57.5943L195.557 59.8322H190.769C187.645 59.8322 184.803 62.0011 183.982 65.0157L182.65 69.9174H192.824L179.119 120.424H186.112C188.73 120.424 191.211 119.71 193.335 118.45C194.593 117.363 195.523 115.89 195.93 114.176C198.101 104.971 203.004 87.6369 207.281 72.8054L207.356 72.4372L208.091 70.3776H223.748C226.872 70.3776 229.708 68.1799 230.529 65.1366L231.425 61.8113L231.631 60.7124L231.873 59.838H211.41C212.099 57.8819 214.946 50.4317 219.643 46.6289C222.255 44.5117 226.981 43.4416 231 43.6948C233.825 43.8731 236.472 43.2518 238.561 41.8423C238.849 41.6582 239.13 41.4683 239.394 41.2497C242.357 38.8046 243.493 33.8858 243.493 33.8858L243.58 33.8743C243.384 33.7477 243.166 33.6499 242.914 33.5981C238.383 32.6891 234.491 32.2346 231.241 32.2346L231.224 32.2404Z" fill="#6B6B6B"/>
<path d="M300.421 105.074C298.739 105.834 297.034 106.432 294.507 107.146C289.104 108.687 284.833 109.464 281.704 109.464C278.574 109.464 275.669 108.601 273.103 106.887C270.536 105.167 269.13 101.761 268.894 96.6634C277.593 96.1859 285.194 94.483 291.705 91.5374C298.205 88.5919 303.097 84.9616 306.375 80.6296C309.648 76.3032 311.278 71.7698 311.278 67.0293C311.278 62.9158 309.774 59.579 306.771 57.0131C303.757 54.4472 299.554 53.1643 294.151 53.1643C286.831 53.1643 279.901 55.2297 273.361 59.3546C266.816 63.4796 261.453 69.2615 257.273 76.6887C253.088 84.1159 250.986 91.641 250.986 99.2696C250.986 103.021 251.859 106.639 253.61 110.114C255.356 113.589 258.255 116.299 262.303 118.261C266.345 120.217 270.904 121.195 275.985 121.195C279.889 121.195 284.689 120.642 290.402 119.532C290.431 119.532 290.459 119.52 290.488 119.515C294.318 118.767 297.401 115.913 298.435 112.139C299.158 109.51 299.887 106.973 300.427 105.069L300.421 105.074ZM278.259 70.1302C281.853 66.6438 285.2 64.8949 288.301 64.8949C290.299 64.8949 291.803 65.4759 292.825 66.6438C293.841 67.8059 294.347 69.1579 294.347 70.694C294.347 74.2034 292.348 77.5747 288.364 80.8309C284.368 84.0814 278.322 85.7038 270.232 85.7038C271.977 78.8116 274.659 73.6223 278.264 70.1359L278.259 70.1302Z" fill="#6B6B6B"/>
<path d="M373 53.6591H360.873C356.791 53.6591 352.916 55.4713 350.286 58.601L337.838 73.4727L331.993 59.6595C330.455 56.0178 326.889 53.6591 322.939 53.6591H312.242L326.413 87.1191L298.072 120.959H310.422C314.516 120.959 318.397 119.141 321.015 116L332.992 101.657L338.257 114.774C339.756 118.508 343.362 120.953 347.381 120.953H357.939L344.355 88.2927L373 53.6533V53.6591Z" fill="#6B6B6B"/>
<path d="M126.619 54.6313C124.77 54.1193 123.048 53.7511 121.457 53.5152C119.861 53.2794 118.397 53.1643 117.059 53.1643C110.485 53.1643 103.796 55.339 96.9982 59.6941C90.2002 64.0434 84.074 70.6537 78.6253 79.5135C73.1708 88.379 70.277 96.721 69.9498 104.522C69.789 108.313 70.9029 111.903 73.2914 115.298C75.6856 118.698 79.0616 120.395 83.4022 120.395C83.4022 120.395 83.8558 120.458 84.6883 120.458C84.9869 120.458 85.3314 120.447 85.7161 120.429L85.5955 120.527C85.5955 120.527 86.1352 120.481 87.0941 120.303C90.5734 119.871 96.2231 118.37 102.757 113.549C106.541 111 110.594 107.543 114.527 102.831L114.613 102.698L112.202 112.41C111.22 116.351 114.033 120.533 118.15 120.533H126.717L143.155 54.6313H126.613H126.619ZM98.6116 101.87C97.5552 102.664 96.5734 103.291 95.6547 103.763C95.626 103.78 95.5915 103.797 95.5571 103.815C94.2251 104.493 93.0308 104.827 91.9916 104.827C90.694 104.827 89.7868 104.321 89.2873 103.303C88.7821 102.29 88.5524 101.214 88.5983 100.087C88.7476 96.5369 89.9706 92.0725 92.2787 86.6991C94.6499 81.6536 99.5647 72.65 105.949 68.5999C113.419 63.8651 120.539 66.0282 122.875 66.966C123.14 67.0695 123.346 67.1616 123.478 67.2249C123.53 67.2479 123.564 67.2651 123.599 67.2766C122.829 71.7008 118.667 88.4423 98.6173 101.864L98.6116 101.87Z" fill="#6B6B6B"/>
<path d="M64.2193 104.85L72.0737 75.072C72.7971 72.2875 73.222 69.7159 73.3541 67.3686C73.5895 63.0883 72.6306 59.8781 70.4776 57.7207C68.3187 55.5633 65.58 54.4817 62.2442 54.4817C61.7676 54.4817 61.2911 54.499 60.8145 54.5335H60.7916C60.7399 54.5335 60.6997 54.5335 60.6423 54.522C46.076 53.7108 33.5651 68.2603 30.8264 71.6834L32.945 63.5658C33.9728 59.625 31.1077 55.9487 27.0083 55.9487H16.9261L0 120.51H3.48512C10.5185 120.51 14.5491 121.528 18.8495 113.25C20.8074 107.439 23.3968 99.8966 23.6495 99.1602C23.6495 99.143 23.6609 99.1257 23.6667 99.1142V99.1027C23.6667 99.1027 23.7011 99.0452 23.7471 98.9819C23.7758 98.9416 23.8045 98.8956 23.8447 98.8438C23.8619 98.815 23.8849 98.7863 23.9078 98.7575C23.9595 98.6885 24.0054 98.6137 24.0571 98.5446C28.3288 92.5211 33.2264 86.3941 38.7899 80.1865C43.3143 75.5035 47.9362 71.856 51.2261 72.0344C54.1888 72.0344 54.0854 74.0192 52.9027 79.2142C52.5352 80.8078 50.2845 87.4584 48.6195 95.576C47.0176 103.389 45.9669 112.559 47.6779 119.866C49.9802 129.686 57.2662 136.141 74.9273 131.418C74.0373 130.975 61.9514 123.317 64.2135 104.844L64.2193 104.85Z" fill="#6B6B6B"/>
</g>
<defs>
<clipPath id="clip0_651_218">
<rect width="373" height="133" fill="white"/>
</clipPath>
</defs>
</svg>
