<svg width="381" height="129" viewBox="0 0 381 129" fill="none" xmlns="http://www.w3.org/2000/svg">
<g clip-path="url(#clip0_651_198)">
<path fill-rule="evenodd" clip-rule="evenodd" d="M308.039 61.6375H311.153V64.0698C311.153 65.6715 311.598 66.7394 312.487 67.3029C313.377 67.8665 315.394 68.1631 318.568 68.1631C320.792 68.1631 322.334 68.0445 323.194 67.8369C324.084 67.6292 324.707 67.2436 325.093 66.7097C325.27 66.4427 325.389 66.0275 325.448 65.4639C325.508 64.9003 325.567 63.8622 325.567 62.3791C325.567 60.6883 325.211 59.5612 324.499 59.0272C323.788 58.4933 322.512 58.2264 320.673 58.2264H316.402V55.4678H320.288C322.156 55.4678 323.402 55.1712 324.054 54.5483C324.707 53.9254 325.063 52.6203 325.063 50.6329C325.063 49.2981 325.004 48.3786 324.855 47.904C324.707 47.4294 324.47 47.0735 324.114 46.7768C323.788 46.5099 323.165 46.3319 322.186 46.2133C321.207 46.0946 319.813 46.0353 317.974 46.0353C315.305 46.0353 313.585 46.3023 312.814 46.7768C312.043 47.2811 311.657 48.2006 311.657 49.5947V52.027H308.543V49.6541C308.543 47.3404 309.255 45.6794 310.649 44.6708C312.043 43.692 314.475 43.1877 317.885 43.1877C320.08 43.1877 321.741 43.2471 322.809 43.3657C323.906 43.4844 324.737 43.6623 325.33 43.9886C326.398 44.4632 327.169 45.2048 327.584 46.0946C328.029 47.0141 328.236 48.4379 328.236 50.4253C328.236 52.5906 327.94 54.1034 327.376 54.9636C326.813 55.8238 325.775 56.3873 324.321 56.7136C325.953 57.0399 327.08 57.6331 327.732 58.4933C328.385 59.3535 328.711 60.7476 328.711 62.735C328.711 63.9511 328.652 64.9893 328.563 65.7902C328.444 66.5911 328.266 67.2733 327.999 67.8665C327.495 69.0233 326.605 69.8242 325.3 70.2988C323.995 70.7734 321.771 71.0107 318.627 71.0107C315.691 71.0107 313.703 70.892 312.636 70.6547C311.598 70.4174 310.738 70.0022 310.085 69.4089C309.403 68.786 308.869 68.0445 308.543 67.125C308.217 66.2351 308.039 65.108 308.039 63.8028V61.6672V61.6375ZM334.109 70.6251V66.0571C334.109 64.6334 334.228 63.5359 334.435 62.7053C334.672 61.8748 335.028 61.1629 335.562 60.5993C336.037 60.0358 336.689 59.5612 337.401 59.1756C338.142 58.79 339.388 58.3747 341.108 57.9298L347.426 56.239C348.405 55.9721 349.205 55.7051 349.828 55.4085C350.451 55.0822 350.896 54.7559 351.133 54.4296C351.311 54.1923 351.43 53.8364 351.489 53.4211C351.548 52.9762 351.608 52.116 351.608 50.8702C351.608 49.6244 351.519 48.6455 351.341 48.1116C351.163 47.5777 350.866 47.1624 350.421 46.8362C350.036 46.5692 349.294 46.3616 348.197 46.2429C347.07 46.1243 345.528 46.0353 343.54 46.0353C340.841 46.0353 339.121 46.3319 338.409 46.8955C337.668 47.4887 337.312 48.6752 337.312 50.5439V52.1457H334.139V50.3659C334.139 47.6667 334.791 45.8277 336.126 44.7895C337.431 43.7513 339.981 43.2471 343.748 43.2471C345.913 43.2471 347.544 43.3064 348.642 43.3954C349.71 43.514 350.54 43.6623 351.103 43.9293C352.468 44.4929 353.417 45.2641 353.921 46.2133C354.455 47.1624 354.692 48.7939 354.692 51.1075C354.692 53.6584 354.307 55.4381 353.536 56.4467C352.764 57.4552 351.281 58.256 349.087 58.8493L341.286 60.9849C339.596 61.4595 338.528 61.9341 338.054 62.468C337.579 63.0019 337.312 63.8028 337.312 64.841V67.8072H354.692V70.6251H334.139H334.109ZM369.047 68.1631H371.509C372.962 68.1631 374.06 68.0742 374.712 67.8962C375.394 67.6885 375.928 67.3919 376.403 66.947C376.848 66.5317 377.144 65.9385 377.322 65.2563C377.5 64.574 377.589 63.3876 377.589 61.6375V52.5609C377.589 50.8109 377.5 49.6244 377.322 48.9422C377.144 48.2599 376.848 47.726 376.403 47.2811C375.928 46.8065 375.365 46.5099 374.653 46.3023C373.941 46.1243 372.903 46.0056 371.539 46.0056H369.077C367.594 46.0056 366.497 46.0946 365.844 46.2726C365.162 46.4802 364.628 46.7768 364.213 47.2218C363.768 47.637 363.471 48.2303 363.293 48.9125C363.115 49.5947 363.026 50.8109 363.026 52.5609V61.6078C363.026 63.3579 363.115 64.574 363.293 65.2563C363.471 65.9385 363.768 66.5021 364.213 66.947C364.628 67.3919 365.192 67.7182 365.844 67.8962C366.526 68.0742 367.594 68.1631 369.077 68.1631H369.047ZM368.958 70.9514C365.547 70.9514 363.175 70.2691 361.81 68.9047C360.446 67.5402 359.794 65.1376 359.794 61.6672V52.4719C359.794 49.0015 360.476 46.5989 361.81 45.2344C363.145 43.87 365.547 43.1877 368.958 43.1877H371.657C375.038 43.1877 377.441 43.87 378.775 45.2344C380.11 46.5989 380.792 49.0015 380.792 52.4719V61.6672C380.792 65.1376 380.11 67.5699 378.775 68.9047C377.441 70.2691 375.038 70.9514 371.657 70.9514H368.958Z" fill="#6B6B6B"/>
<path d="M371.628 71.1887H368.929C365.459 71.1887 362.997 70.4768 361.633 69.0827C360.239 67.6885 359.527 65.1969 359.527 61.6672V52.4719C359.527 48.9422 360.239 46.4506 361.633 45.0564C362.997 43.6623 365.459 42.9504 368.929 42.9504H371.628C375.098 42.9504 377.559 43.6623 378.924 45.0564C380.318 46.4506 381 48.9422 381 52.4719V61.6672C381 65.1969 380.288 67.6885 378.924 69.0827C377.53 70.4768 375.068 71.1887 371.628 71.1887ZM368.929 43.425C365.577 43.425 363.234 44.0776 361.959 45.3827C360.654 46.6879 360.001 49.0608 360.001 52.4423V61.6375C360.001 65.0486 360.654 67.4216 361.959 68.7267C363.264 70.0318 365.607 70.6844 368.929 70.6844H371.628C374.949 70.6844 377.293 70.0318 378.598 68.7267C379.903 67.4216 380.555 65.0486 380.555 61.6375V52.4423C380.555 49.0608 379.903 46.6582 378.598 45.3827C377.322 44.0776 374.979 43.425 371.628 43.425H368.929ZM318.627 71.1887C315.631 71.1887 313.644 71.07 312.606 70.8327C311.538 70.5954 310.649 70.1505 309.937 69.5276C309.195 68.875 308.662 68.0741 308.335 67.1546C308.009 66.2648 307.831 65.1079 307.831 63.7732V61.4002H311.42V64.0698C311.42 65.5529 311.835 66.591 312.636 67.0953C313.466 67.6292 315.483 67.9258 318.597 67.9258C320.762 67.9258 322.305 67.8072 323.165 67.5996C323.966 67.4216 324.559 67.0656 324.944 66.5614C325.093 66.3241 325.211 65.9385 325.271 65.4342C325.33 64.841 325.389 63.7435 325.389 62.379C325.389 60.7773 325.063 59.7095 324.44 59.2052C323.788 58.701 322.542 58.434 320.762 58.434H316.254V55.2008H320.377C322.156 55.2008 323.372 54.9042 323.995 54.3406C324.618 53.7771 324.915 52.5016 324.915 50.6032C324.915 49.2981 324.855 48.4082 324.707 47.9633C324.588 47.548 324.351 47.2218 324.025 46.9845C323.728 46.7472 323.135 46.5989 322.216 46.4506C321.207 46.3319 319.754 46.2726 318.034 46.2726C314.771 46.2726 313.496 46.6582 313.021 46.9845C312.31 47.4294 311.983 48.2896 311.983 49.5947V52.294H308.395V49.6837C308.395 47.3108 309.136 45.5607 310.619 44.5225C312.072 43.514 314.534 43.0098 317.974 43.0098C320.169 43.0098 321.83 43.0691 322.927 43.1877C324.055 43.3064 324.915 43.514 325.538 43.8106C326.635 44.3149 327.436 45.0564 327.91 46.0353C328.385 46.9845 328.592 48.4379 328.592 50.4549C328.592 52.6499 328.296 54.222 327.673 55.1119C327.198 55.8237 326.427 56.3577 325.389 56.7136C326.576 57.0696 327.465 57.6331 328.029 58.345C328.711 59.2645 329.037 60.6883 329.037 62.7053C329.037 63.9215 328.978 64.9596 328.889 65.7902C328.77 66.6207 328.563 67.3326 328.296 67.9555C327.762 69.1716 326.813 70.0318 325.449 70.5064C324.114 70.981 321.919 71.2183 318.686 71.2183L318.627 71.1887ZM308.306 61.8748V63.7435C308.306 65.0486 308.454 66.1165 308.78 66.9767C309.077 67.8072 309.581 68.5487 310.263 69.1716C310.916 69.7352 311.746 70.1505 312.725 70.3581C313.733 70.5954 315.691 70.7141 318.657 70.7141C321.771 70.7141 323.995 70.4768 325.241 70.0318C326.457 69.5869 327.317 68.8157 327.792 67.7479C328.059 67.1843 328.236 66.5317 328.355 65.7308C328.474 64.93 328.503 63.9215 328.503 62.7053C328.503 60.807 328.207 59.4425 327.584 58.612C326.961 57.7814 325.864 57.2179 324.321 56.9212V56.4466C325.715 56.15 326.694 55.5864 327.228 54.8152C327.792 53.9847 328.059 52.5313 328.059 50.4253C328.059 48.4972 327.851 47.0735 327.436 46.2133C327.02 45.3531 326.279 44.6708 325.271 44.1962C324.707 43.8996 323.906 43.7217 322.809 43.603C321.741 43.4844 320.11 43.425 317.915 43.425C314.564 43.425 312.191 43.8996 310.827 44.8785C309.462 45.8277 308.81 47.3997 308.81 49.654V51.7897H311.449V49.5947C311.449 48.1116 311.865 47.1328 312.695 46.5692C313.496 46.0649 315.275 45.798 317.974 45.798C319.724 45.798 321.207 45.8573 322.216 45.976C323.254 46.1243 323.906 46.3022 324.262 46.5989C324.677 46.8955 324.944 47.3108 325.093 47.8447C325.241 48.3489 325.33 49.2388 325.33 50.6329C325.33 52.7389 324.974 54.0737 324.262 54.7263C323.55 55.3788 322.245 55.7051 320.318 55.7051H316.669V57.9891H320.703C322.631 57.9891 323.936 58.256 324.677 58.8493C325.449 59.4425 325.834 60.629 325.834 62.4087C325.834 63.7732 325.804 64.9003 325.715 65.4936C325.626 66.0868 325.508 66.5317 325.3 66.858C324.855 67.4512 324.173 67.8665 323.254 68.0741C322.334 68.3114 320.762 68.4301 318.568 68.4301C315.335 68.4301 313.288 68.1335 312.339 67.5402C311.39 66.9173 310.916 65.7605 310.916 64.0994V61.9045H308.306V61.8748ZM354.9 70.8624H333.842V66.0571C333.842 64.6334 333.961 63.4765 334.198 62.646C334.435 61.7858 334.821 61.0443 335.355 60.4214C335.859 59.8578 336.511 59.3535 337.282 58.9383C338.054 58.5526 339.27 58.1374 341.02 57.6628L347.337 55.9721C348.316 55.7051 349.087 55.4381 349.68 55.1415C350.273 54.8449 350.659 54.5483 350.896 54.2517C351.044 54.044 351.163 53.7177 351.222 53.3321C351.282 52.8872 351.341 51.9973 351.341 50.8109C351.341 49.5354 351.252 48.6455 351.074 48.1413C350.926 47.6667 350.629 47.2811 350.243 46.9845C349.888 46.7472 349.205 46.5692 348.138 46.4506C347.011 46.3319 345.439 46.2429 343.511 46.2429C340.871 46.2429 339.21 46.5099 338.528 47.0735C337.846 47.6074 337.52 48.7642 337.52 50.5143V52.3533H333.842V50.3363C333.842 47.5777 334.554 45.6497 335.918 44.5818C337.282 43.514 339.892 42.9801 343.689 42.9801C345.943 42.9801 347.545 43.0394 348.612 43.1284C349.769 43.2471 350.57 43.425 351.133 43.6623C352.527 44.2556 353.536 45.0564 354.069 46.0649C354.603 47.0438 354.87 48.7049 354.87 51.0778C354.87 53.6584 354.455 55.5271 353.654 56.5653C352.853 57.6331 351.311 58.4637 349.087 59.0569L341.286 61.1926C339.655 61.6375 338.617 62.1121 338.172 62.6163C337.727 63.0909 337.49 63.8621 337.49 64.841V67.5699H354.87V70.892L354.9 70.8624ZM334.346 70.3878H354.425V68.0445H337.045V64.841C337.045 63.7435 337.312 62.8833 337.846 62.2901C338.35 61.7265 339.448 61.1926 341.197 60.718L348.998 58.5823C351.133 58.0187 352.587 57.2179 353.328 56.2687C354.069 55.2898 354.425 53.5398 354.425 51.0778C354.425 48.7939 354.188 47.1921 353.684 46.3022C353.18 45.4124 352.29 44.6708 350.985 44.1073C350.481 43.87 349.71 43.7217 348.612 43.603C347.574 43.514 345.973 43.4547 343.748 43.4547C340.07 43.4547 337.549 43.9589 336.274 44.9675C335.028 45.9463 334.376 47.7557 334.376 50.3659V51.9084H337.075V50.5439C337.075 48.6455 337.49 47.3404 338.261 46.7175C339.032 46.0946 340.782 45.798 343.541 45.798C345.498 45.798 347.1 45.8573 348.227 46.0056C349.383 46.1243 350.154 46.3319 350.57 46.6285C351.044 46.9845 351.371 47.4591 351.578 48.0226C351.756 48.5862 351.845 49.5057 351.845 50.8405C351.845 52.0567 351.815 52.9762 351.726 53.4508C351.667 53.9254 351.519 54.2813 351.311 54.5779C351.044 54.9635 350.599 55.2898 349.917 55.6161C349.294 55.9424 348.494 56.2094 347.485 56.4763L341.168 58.167C339.448 58.612 338.232 59.0272 337.52 59.4128C336.808 59.7985 336.185 60.273 335.74 60.7773C335.266 61.3409 334.91 62.0231 334.672 62.7943C334.465 63.5952 334.346 64.7223 334.346 66.0868V70.4174V70.3878ZM371.509 68.4004H369.047C367.535 68.4004 366.437 68.3114 365.725 68.1038C364.984 67.8962 364.42 67.5402 363.976 67.0656C363.531 66.6207 363.204 66.0275 362.997 65.2859C362.819 64.574 362.7 63.3282 362.7 61.5782V52.5313C362.7 50.7812 362.789 49.5354 362.997 48.8235C363.204 48.082 363.531 47.4887 363.976 47.0438C364.42 46.5692 364.984 46.2429 365.725 46.0353C366.437 45.8277 367.505 45.7387 369.047 45.7387H371.509C372.873 45.7387 373.941 45.8277 374.712 46.0353C375.454 46.2429 376.076 46.5989 376.581 47.0735C377.055 47.548 377.382 48.1413 377.559 48.8532C377.737 49.5354 377.826 50.7515 377.826 52.5313V61.6078C377.826 63.3876 377.737 64.6037 377.559 65.2859C377.382 65.9978 377.055 66.6207 376.581 67.0656C376.106 67.5402 375.513 67.8665 374.801 68.0741C374.119 68.2521 373.022 68.3708 371.539 68.3708L371.509 68.4004ZM369.047 46.2133C367.594 46.2133 366.526 46.3022 365.874 46.4802C365.221 46.6582 364.747 46.9548 364.332 47.3701C363.916 47.7557 363.649 48.2896 363.471 48.9422C363.293 49.6244 363.204 50.8109 363.204 52.5313V61.5782C363.204 63.2986 363.293 64.485 363.471 65.1673C363.649 65.8495 363.946 66.3538 364.332 66.7394C364.717 67.1546 365.221 67.4512 365.874 67.6292C366.526 67.8072 367.594 67.8962 369.047 67.8962H371.509C372.962 67.8962 374 67.8072 374.653 67.6292C375.305 67.4512 375.81 67.1546 376.225 66.7394C376.64 66.3241 376.937 65.8198 377.085 65.1673C377.263 64.5147 377.322 63.3579 377.322 61.6078V52.5313C377.322 50.7812 377.233 49.6244 377.085 48.9718C376.937 48.3489 376.64 47.8447 376.225 47.4294C375.78 46.9845 375.246 46.6879 374.564 46.5099C373.852 46.3319 372.814 46.2429 371.509 46.2429H369.047V46.2133Z" fill="#6B6B6B"/>
<path fill-rule="evenodd" clip-rule="evenodd" d="M22.5409 57.4554C22.5409 62.1123 20.9096 66.176 17.5878 69.6761C14.2957 73.1762 10.2027 75.0746 5.36829 75.4306V86.4648H0V39.4802H4.00397C9.10532 39.4802 13.4949 41.2303 17.1133 44.7601C20.7317 48.2602 22.5409 52.5018 22.5409 57.4554ZM17.2616 57.4554C17.2616 54.1629 16.1049 51.2857 13.8508 48.8534C11.5967 46.3915 8.74942 45.027 5.36829 44.7304V70.2397C8.6901 69.9134 11.5374 68.5193 13.8211 66.0574C16.1049 63.5954 17.2616 60.7182 17.2616 57.4554ZM52.0219 86.4648C48.5815 86.4648 45.319 85.7826 42.2345 84.3588C39.1499 82.9647 36.4806 81.0663 34.2562 78.6637V86.4648H28.9769V39.4802H32.8919C37.9932 39.4802 42.3828 41.2303 46.0308 44.7601C49.6789 48.2602 51.5177 52.5018 51.5177 57.4554C51.5177 61.5487 50.2424 65.1675 47.6621 68.371C45.0817 71.5745 41.8192 73.7102 37.8746 74.8077C39.5948 76.8543 41.7006 78.4264 44.1623 79.5832C46.624 80.7104 49.234 81.3036 52.0516 81.3036V86.4945L52.0219 86.4648ZM46.1791 57.4554C46.1791 54.1629 45.0224 51.2857 42.7683 48.8534C40.4846 46.3915 37.667 45.027 34.2858 44.7304V70.2397C37.6373 69.9134 40.4549 68.5193 42.7387 66.0574C45.0224 63.5954 46.1791 60.7182 46.1791 57.4554Z" fill="#6B6B6B"/>
<path fill-rule="evenodd" clip-rule="evenodd" d="M134.652 71.4855C134.652 75.5788 133.139 79.0789 130.144 82.0155C127.148 84.9817 123.53 86.4648 119.259 86.4648V81.2739C122.047 81.2739 124.42 80.2951 126.407 78.367C128.364 76.439 129.373 74.1254 129.373 71.4855V70.8922C129.373 70.7142 129.373 70.5363 129.313 70.3583C129.224 69.2905 128.957 68.2523 128.513 67.2438C128.068 66.2353 127.415 65.4048 126.555 64.6929C125.428 63.7437 124.301 62.7648 123.144 61.786C121.988 60.8071 120.831 59.858 119.674 58.9384C118.488 57.9003 117.568 56.6545 116.975 55.2307C116.382 53.7773 116.085 52.2942 116.085 50.7517C116.085 47.6669 117.242 45.027 119.526 42.8023C121.839 40.5777 124.598 39.4802 127.801 39.4802V44.671C126.051 44.671 124.538 45.2643 123.293 46.4507C122.047 47.6372 121.424 49.0907 121.424 50.7814V51.167C121.424 51.167 121.424 51.4043 121.483 51.5229C121.513 52.2052 121.691 52.8281 121.928 53.451C122.195 54.0739 122.581 54.6078 123.085 55.0231C124.242 55.9722 125.398 56.9214 126.555 57.8706C127.712 58.8198 128.868 59.7986 130.025 60.7478C131.538 62.0233 132.665 63.5954 133.406 65.4048C134.148 67.2141 134.563 69.0828 134.652 70.9812V71.4855ZM159.625 44.671H150.104V86.4648H144.825V44.671H135.305V39.4802H159.625V44.671ZM194.83 86.4648H189.284L185.606 75.0449H168.879L165.201 86.4648H159.595L163.332 75.0449H160.515V69.6761H165.023L174.751 39.6581H179.763L194.83 86.4648ZM183.886 69.6761L177.272 49.0907L170.628 69.6761H183.886ZM233.001 86.4648H227.722V48.5864L217.549 56.3282L207.376 48.5864V86.4648H202.097V38.1157L217.549 49.8619L233.001 38.1157V86.4648ZM245.369 86.4648H240.09V39.4802H245.369V86.4648ZM276.659 86.4648C270.016 86.4648 264.321 84.1511 259.576 79.5832C254.83 74.9856 252.458 69.4388 252.458 62.9428C252.458 56.4468 254.83 50.9594 259.576 46.3618C264.321 41.7641 270.016 39.4802 276.659 39.4802V44.671C271.469 44.671 267.02 46.4507 263.313 50.0398C259.606 53.6289 257.737 57.9299 257.737 62.9428C257.737 67.9557 259.576 72.2863 263.313 75.8754C267.02 79.4645 271.469 81.2739 276.659 81.2739V86.4648ZM289.65 86.4648H284.371V39.4802H289.65V86.4648ZM317.47 86.4648H296.561V39.4802H301.899V81.2739H317.47V86.4648Z" fill="#6B6B6B"/>
<path d="M83.9646 92.0115C67.4149 92.0115 53.9497 78.9602 53.9497 62.9131C53.9497 46.866 67.4149 33.8147 83.9646 33.8147C100.514 33.8147 113.98 46.866 113.98 62.9131C113.98 78.9602 100.514 92.0115 83.9646 92.0115ZM83.9646 35.1495C68.1564 35.1495 55.314 47.6075 55.314 62.8835C55.314 78.1594 68.1564 90.6174 83.9646 90.6174C99.7729 90.6174 112.615 78.1594 112.615 62.8835C112.615 47.6075 99.7729 35.1495 83.9646 35.1495Z" fill="#6B6B6B"/>
<path d="M148.888 62.3496H19.0708V63.4768H148.888V62.3496Z" fill="#6B6B6B"/>
<path d="M84.5284 0H83.4014V125.797H84.5284V0Z" fill="#6B6B6B"/>
<path d="M83.9646 87.5029C69.9952 87.5029 58.6357 76.4687 58.6357 62.8835C58.6357 49.2983 69.9952 38.2937 83.9646 38.2937C97.934 38.2937 109.264 49.328 109.264 62.8835C109.264 76.439 97.9043 87.5029 83.9646 87.5029ZM83.9646 42.4167C72.2492 42.4167 62.7287 51.6119 62.7287 62.9132C62.7287 74.2144 72.2492 83.4392 83.9646 83.4392C95.6799 83.4392 105.171 74.244 105.171 62.9132C105.171 51.5823 95.6502 42.4167 83.9646 42.4167Z" fill="#6B6B6B"/>
<path d="M83.9645 81.7188C73.2873 81.7188 64.5972 73.2652 64.5972 62.9131C64.5972 52.5611 73.2873 44.1074 83.9645 44.1074C94.6418 44.1074 103.332 52.5611 103.332 62.9131C103.332 73.2652 94.6418 81.7188 83.9645 81.7188ZM83.9645 47.4889C75.1558 47.4889 68.008 54.4001 68.008 62.9131C68.008 71.4261 75.1558 78.3374 83.9645 78.3374C92.7732 78.3374 99.9211 71.4261 99.9211 62.9131C99.9211 54.4001 92.7732 47.4889 83.9645 47.4889Z" fill="#6B6B6B"/>
</g>
<defs>
<clipPath id="clip0_651_198">
<rect width="381" height="129" fill="white"/>
</clipPath>
</defs>
</svg>
