<svg width="64" height="64" viewBox="0 0 64 64" fill="none" xmlns="http://www.w3.org/2000/svg">
<path d="M0.5 32C0.5 14.603 14.603 0.5 32 0.5C49.397 0.5 63.5 14.603 63.5 32C63.5 49.397 49.397 63.5 32 63.5C14.603 63.5 0.5 49.397 0.5 32Z" fill="white" stroke="#0F5F9C"/>
<path d="M25.0004 41L25.0004 23C25.001 22.8178 25.0512 22.6392 25.1458 22.4834C25.2403 22.3276 25.3755 22.2005 25.5369 22.1158C25.6983 22.0312 25.8797 21.9922 26.0617 22.0029C26.2436 22.0137 26.4191 22.0739 26.5694 22.177L39.5694 31.177C40.1084 31.55 40.1084 32.448 39.5694 32.822L26.5694 41.822C26.4194 41.9262 26.2438 41.9873 26.0616 41.9987C25.8794 42.01 25.6975 41.9713 25.5358 41.8865C25.374 41.8018 25.2386 41.6744 25.1442 41.5181C25.0498 41.3618 25.0001 41.1826 25.0004 41Z" fill="#0F5F9C"/>
</svg>
