<svg xmlns="http://www.w3.org/2000/svg" xmlns:xlink="http://www.w3.org/1999/xlink" width="114.317" height="114.317" viewBox="0 0 114.317 114.317"><defs><clipPath id="a"><rect width="114.317" height="114.317" fill="none"/></clipPath><filter id="b" x="-4.552" y="-0.205" width="122.075" height="123.069" filterUnits="userSpaceOnUse"><feOffset dy="3" input="SourceAlpha"/><feGaussianBlur stdDeviation="5" result="c"/><feFlood flood-opacity="0.251"/><feComposite operator="in" in2="c"/><feComposite in="SourceGraphic"/></filter><clipPath id="d"><path d="M136.7,147.792c-2.712-.758-11.683-3.1-17.53-8.558s-10.587-11.2-12.524-15.43-1.83-6.748-1.722-7.933.73-6.67,4.4-9.021a5.316,5.316,0,0,1,1.865-.777h3.574a2.025,2.025,0,0,1,1.4,1.165c.439,1,3.454,8.078,3.678,8.623a2.988,2.988,0,0,1-.129,3.109c-.939,1.21-2.9,3.471-2.9,3.471a1.4,1.4,0,0,0-.1,1.813,36.269,36.269,0,0,0,6.136,7.561,29.275,29.275,0,0,0,8.781,5.439c1.89.622,2.306-.207,3.029-1.14s2.98-3.781,2.98-3.781a1.78,1.78,0,0,1,2.3-.442c1.529.7,8.961,4.3,8.961,4.3a1.206,1.206,0,0,1,.958,1.165,8.125,8.125,0,0,1-2.02,6.938c-2.2,2.373-6.411,3.706-9.363,3.7a6.715,6.715,0,0,1-1.772-.208M88.493,126.6c0,12.326,7.428,22.605,7.428,22.605L91.27,163.074,105.6,158.4s9.335,6.3,21,6.3A38.106,38.106,0,1,0,88.493,126.6" transform="translate(-88.493 -88.492)" fill="none"/></clipPath><linearGradient id="e" x1="-0.112" y1="1.112" x2="-0.11" y2="1.112" gradientUnits="objectBoundingBox"><stop offset="0" stop-color="#40ba57"/><stop offset="0.25" stop-color="#40ba57"/><stop offset="0.375" stop-color="#40ba58"/><stop offset="0.438" stop-color="#40bb58"/><stop offset="0.5" stop-color="#41bb58"/><stop offset="0.531" stop-color="#42bb59"/><stop offset="0.563" stop-color="#42bb59"/><stop offset="0.594" stop-color="#43bb59"/><stop offset="0.609" stop-color="#44bc5a"/><stop offset="0.625" stop-color="#44bc5a"/><stop offset="0.641" stop-color="#45bc5a"/><stop offset="0.656" stop-color="#46bc5b"/><stop offset="0.672" stop-color="#46bd5b"/><stop offset="0.688" stop-color="#47bd5c"/><stop offset="0.703" stop-color="#48bd5c"/><stop offset="0.711" stop-color="#49bd5d"/><stop offset="0.719" stop-color="#49bd5d"/><stop offset="0.727" stop-color="#4abe5d"/><stop offset="0.734" stop-color="#4abe5d"/><stop offset="0.742" stop-color="#4bbe5e"/><stop offset="0.75" stop-color="#4bbe5e"/><stop offset="0.758" stop-color="#4cbe5e"/><stop offset="0.766" stop-color="#4cbf5f"/><stop offset="0.773" stop-color="#4dbf5f"/><stop offset="0.781" stop-color="#4ebf60"/><stop offset="0.789" stop-color="#4ebf60"/><stop offset="0.797" stop-color="#4fbf60"/><stop offset="0.805" stop-color="#50c061"/><stop offset="0.813" stop-color="#51c061"/><stop offset="0.82" stop-color="#51c062"/><stop offset="0.828" stop-color="#52c162"/><stop offset="0.836" stop-color="#53c163"/><stop offset="0.84" stop-color="#54c163"/><stop offset="0.844" stop-color="#54c164"/><stop offset="0.848" stop-color="#55c164"/><stop offset="0.852" stop-color="#55c264"/><stop offset="0.855" stop-color="#56c264"/><stop offset="0.859" stop-color="#56c265"/><stop offset="0.863" stop-color="#57c265"/><stop offset="0.867" stop-color="#57c265"/><stop offset="0.871" stop-color="#58c266"/><stop offset="0.875" stop-color="#58c366"/><stop offset="0.879" stop-color="#59c366"/><stop offset="0.883" stop-color="#59c367"/><stop offset="0.887" stop-color="#5ac367"/><stop offset="0.891" stop-color="#5ac367"/><stop offset="0.895" stop-color="#5bc468"/><stop offset="0.898" stop-color="#5bc468"/><stop offset="0.902" stop-color="#5cc468"/><stop offset="0.906" stop-color="#5dc469"/><stop offset="0.91" stop-color="#5dc469"/><stop offset="0.914" stop-color="#5ec56a"/><stop offset="0.918" stop-color="#5ec56a"/><stop offset="0.922" stop-color="#5fc56a"/><stop offset="0.926" stop-color="#60c56b"/><stop offset="0.93" stop-color="#60c56b"/><stop offset="0.934" stop-color="#61c66c"/><stop offset="0.938" stop-color="#62c66c"/><stop offset="0.941" stop-color="#62c66d"/><stop offset="0.945" stop-color="#63c66d"/><stop offset="0.949" stop-color="#64c76e"/><stop offset="0.953" stop-color="#64c76e"/><stop offset="0.957" stop-color="#65c76e"/><stop offset="0.961" stop-color="#66c76f"/><stop offset="0.969" stop-color="#66c76f"/><stop offset="1" stop-color="#66c76f"/></linearGradient></defs><g clip-path="url(#a)"><g transform="matrix(1, 0, 0, 1, 0, 0)" filter="url(#b)"><path d="M95.238,138.25c-11.664,0-21-6.3-21-6.3L59.91,136.622l4.649-13.872s-7.426-10.281-7.426-22.605A38.105,38.105,0,1,1,95.238,138.25m0-83.469a45.364,45.364,0,0,0-45.364,45.364c0,12.435,6.583,23.549,6.583,23.549l-7.93,24.156,24.856-7.944a45.986,45.986,0,0,0,21.855,5.6,45.364,45.364,0,1,0,0-90.727" transform="translate(-38.08 -42.99)" fill="#fff"/></g></g><g transform="translate(19.053 19.053)"><g clip-path="url(#d)"><rect width="93.34" height="93.339" transform="matrix(0.259, -0.966, 0.966, 0.259, -19.053, 71.106)" fill="url(#e)"/></g></g><g clip-path="url(#a)"><path d="M209.553,201.428a8.125,8.125,0,0,1-2.02,6.939c-2.693,2.909-8.422,4.255-11.135,3.5s-11.682-3.1-17.53-8.558-10.587-11.2-12.524-15.431-1.83-6.748-1.722-7.932.73-6.67,4.4-9.021a5.315,5.315,0,0,1,1.865-.777h3.574a2.025,2.025,0,0,1,1.4,1.165c.44,1,3.454,8.078,3.678,8.622a2.988,2.988,0,0,1-.13,3.109c-.939,1.21-2.9,3.471-2.9,3.471a1.4,1.4,0,0,0-.1,1.812,36.248,36.248,0,0,0,6.136,7.562,29.282,29.282,0,0,0,8.78,5.439c1.891.622,2.305-.207,3.03-1.14s2.98-3.781,2.98-3.781a1.78,1.78,0,0,1,2.3-.442c1.528.7,8.961,4.3,8.961,4.3a1.206,1.206,0,0,1,.958,1.165" transform="translate(-129.139 -133.511)" fill="#fff"/></g></svg>