<?xml version="1.0" encoding="utf-8"?>
<!-- Generator: Adobe Illustrator 28.0.0, SVG Export Plug-In . SVG Version: 6.00 Build 0)  -->
<svg version="1.1" id="Layer_1" xmlns="http://www.w3.org/2000/svg" xmlns:xlink="http://www.w3.org/1999/xlink" x="0px" y="0px"
	 viewBox="0 0 1000 1000" style="enable-background:new 0 0 1000 1000;" xml:space="preserve">
<style type="text/css">
	.st0{fill-rule:evenodd;clip-rule:evenodd;fill:#0275C6;}
	.st1{opacity:0.978;fill-rule:evenodd;clip-rule:evenodd;fill:#FEFFFE;enable-background:new    ;}
	.st2{opacity:0.977;fill-rule:evenodd;clip-rule:evenodd;fill:#FEFFFE;enable-background:new    ;}
	.st3{opacity:0.974;fill-rule:evenodd;clip-rule:evenodd;fill:#FEFFFE;enable-background:new    ;}
	.st4{opacity:0.981;fill-rule:evenodd;clip-rule:evenodd;fill:#FEFFFE;enable-background:new    ;}
</style>
<path class="st0" d="M832.8,1000H167.2C74.9,1000,0,925.1,0,832.8V167.2C0,74.9,74.9,0,167.2,0h665.5C925.1,0,1000,74.9,1000,167.2
	v665.5C1000,925.1,925.1,1000,832.8,1000z"/>
<g>
	<g>
		<path class="st1" d="M177.8,250.1c25.3,0,50.5,0,75.8,0c0,166.6,0,333.2,0,499.9c-25.3,0-50.5,0-75.8,0
			C177.8,583.3,177.8,416.7,177.8,250.1z"/>
	</g>
	<g>
		<path class="st2" d="M295.1,250.1c25.3,0,50.5,0,75.8,0c0,166.6,0,333.2,0,499.9c-25.3,0-50.5,0-75.8,0
			C295.1,583.3,295.1,416.7,295.1,250.1z"/>
	</g>
	<g>
		<path class="st3" d="M412.3,250.1c26.9,0,53.7,0,80.5,0c0,166.6,0,333.2,0,499.9c-26.9,0-53.7,0-80.5,0
			C412.3,583.3,412.3,416.7,412.3,250.1z"/>
	</g>
	<g>
		<path class="st4" d="M535.5,250.1c32.8-0.2,65.5,0,98.3,0.6c74.6,7.5,130.5,43.7,167.6,108.4c3.5,8.7,7.1,17.3,10.7,26.1
			c5.6,17.3,8.8,35.1,9.5,53.3c0.8,39.5,0.8,79,0,118.4c-3.4,56.8-26.1,103.8-68.1,141c-33.8,29.6-73.2,46.8-118.4,51.5
			c-33.2,0.6-66.3,0.8-99.5,0.6c0-26.5,0-52.9,0-79.4c28.4,0.2,56.9,0,85.3-0.6c65.5-10.2,104.8-47.9,117.9-113.1
			c0.8-37.5,0.8-75,0-112.5c-10.4-56.6-43-93.5-97.7-110.7c-7.9-1.2-15.8-2.4-23.7-3.6c-27.2-0.6-54.5-0.8-81.7-0.6
			C535.5,303,535.5,276.5,535.5,250.1z"/>
	</g>
</g>
</svg>
