<svg width="59" height="60" viewBox="0 0 59 60" fill="none" xmlns="http://www.w3.org/2000/svg">
<path d="M52.7999 33.2908V21.3762C52.7999 19.6852 54.1835 18.3102 55.884 18.3102C56.697 18.3104 57.4766 18.6336 58.0513 19.2085C58.6261 19.7835 58.949 20.5632 58.949 21.3762V37.6909C58.9484 39.9413 58.1442 42.1175 56.6814 43.8276L46.5081 54.6317C45.4985 55.5824 45.2511 56.4235 45.2511 57.6987V59.6656H34.1777L34.1653 54.9857C34.1653 53.2034 34.0197 50.8216 36.2502 48.4846L49.1592 35.5222C49.6092 35.0729 50.2164 34.8161 50.8523 34.8063C51.4882 34.7966 52.1029 35.0345 52.5666 35.4698C53.0302 35.9051 53.3063 36.5037 53.3365 37.139C53.3668 37.7742 53.1488 38.3963 52.7286 38.8737L46.5024 45.5433C46.099 46.0162 45.4157 46.9078 45.077 48.0002C44.8943 48.5674 44.8419 49.1202 44.8315 49.7549H46.8355C46.8431 49.3029 46.8773 48.9394 46.9849 48.6026C47.1809 47.9726 47.571 47.4055 47.8651 47.042L54.1854 40.105C54.98 39.3038 55.4158 38.2666 55.4158 37.1761C55.4158 35.5384 54.4309 34.0321 52.8018 33.2899L52.7999 33.2908ZM6.14907 33.2908V21.3762C6.14907 19.6852 4.76548 18.3102 3.06502 18.3102C2.25204 18.3104 1.47244 18.6336 0.897665 19.2085C0.32289 19.7835 -3.91561e-08 20.5632 0 21.3762V37.6909C0 39.9471 0.811692 42.1262 2.26855 43.8276L12.4428 54.6317C13.4514 55.5824 13.6998 56.4235 13.6998 57.6987V59.6656H24.7733L24.7856 54.9857C24.7856 53.2034 24.9312 50.8216 22.7007 48.4846L9.79169 35.5222C9.34168 35.0729 8.73453 34.8161 8.09863 34.8063C7.46274 34.7966 6.84798 35.0345 6.38435 35.4698C5.92073 35.9051 5.6446 36.5037 5.61436 37.139C5.58412 37.7742 5.80215 38.3963 6.22234 38.8737L12.4494 45.5433C12.8529 46.0162 13.5361 46.9078 13.8749 48.0002C14.0585 48.5674 14.1099 49.1202 14.1204 49.7549H12.1164C12.1088 49.3029 12.0755 48.9394 11.966 48.6026C11.771 47.9726 11.3799 47.4055 11.0858 47.042L4.76548 40.106C3.97091 39.3047 3.53509 38.2666 3.53509 37.177C3.53509 35.5384 4.51997 34.033 6.14907 33.2908ZM30.6397 5.27745C31.337 5.27745 32.0058 5.00044 32.4988 4.50737C32.9919 4.01431 33.2689 3.34556 33.2689 2.64825C33.2689 1.95095 32.9919 1.2822 32.4988 0.78913C32.0058 0.29606 31.337 0.0190561 30.6397 0.0190561C29.9424 0.0190561 29.2736 0.29606 28.7806 0.78913C28.2875 1.2822 28.0105 1.95095 28.0105 2.64825C28.0105 3.34556 28.2875 4.01431 28.7806 4.50737C29.2736 5.00044 29.9424 5.27745 30.6397 5.27745ZM16.3785 5.29172C16.0296 5.29322 15.6838 5.22595 15.361 5.09373C15.0381 4.96152 14.7445 4.76697 14.4968 4.5212C14.2492 4.27542 14.0524 3.98325 13.9178 3.66139C13.7832 3.33953 13.7133 2.99428 13.7122 2.6454C13.7134 2.29659 13.7834 1.95145 13.9181 1.6297C14.0528 1.30794 14.2495 1.01589 14.4972 0.770215C14.7448 0.524544 15.0384 0.330075 15.3612 0.197922C15.684 0.0657689 16.0297 -0.00147785 16.3785 2.4632e-05C17.8515 2.4632e-05 19.0486 1.18378 19.0486 2.6454C19.0486 4.10987 17.8515 5.29172 16.3785 5.29172ZM43.7 15.4393C43.9422 15.4392 44.182 15.3913 44.4057 15.2986C44.6294 15.2058 44.8326 15.0698 45.0038 14.8985C45.1749 14.7272 45.3107 14.5238 45.4032 14.3C45.4958 14.0762 45.5434 13.8364 45.5432 13.5942C45.5431 13.352 45.4953 13.1122 45.4025 12.8885C45.3097 12.6648 45.1738 12.4616 45.0024 12.2905C44.8311 12.1193 44.6277 11.9836 44.4039 11.891C44.1801 11.7985 43.9403 11.7509 43.6981 11.751C43.209 11.7513 42.7401 11.9458 42.3944 12.2918C42.0487 12.6378 41.8547 13.107 41.8549 13.5961C41.8552 14.0852 42.0497 14.5542 42.3958 14.8998C42.7418 15.2455 43.2109 15.4395 43.7 15.4393Z" fill="#0F5F9C"/>
<path d="M46.3704 16.3491H41.3965C41.3737 16.3491 39.7322 16.1997 39.7322 16.1997L37.6492 8.93918C36.8109 6.01595 34.3596 6.1054 34.3596 6.1054H27.6168C27.6168 6.1054 25.1674 6.01595 24.3291 8.93918L23.3005 12.5142L22.2747 8.93918C21.4316 6.01595 18.987 6.1054 18.987 6.1054H13.7695C13.7695 6.1054 11.3183 6.01595 10.4799 8.93918L8.3798 16.2558C8.17996 16.941 8.55488 17.4605 9.15438 17.6337C9.75196 17.804 10.3638 17.5024 10.517 16.9571L12.5629 9.8251L13.5592 9.8232L10.5732 22.1718H13.2119V30.9434C13.2119 31.6656 13.7942 32.2537 14.5184 32.2537C15.2406 32.2537 15.8316 31.6656 15.8316 30.9434V22.1718H16.9382V30.9434C16.9382 31.6656 17.5216 32.2537 18.2438 32.2537C18.5919 32.2542 18.926 32.1164 19.1726 31.8707C19.4192 31.625 19.5581 31.2915 19.5589 30.9434V22.1718H22.1519L19.1973 9.8232L20.1898 9.8251L22.2128 16.882C22.2461 17.0028 22.3004 17.1132 22.3708 17.2084C22.5687 17.5081 22.9141 17.6737 23.2986 17.6613C23.683 17.6737 24.0265 17.5091 24.2244 17.2141C24.307 17.1061 24.3657 16.9819 24.3967 16.8496L26.4093 9.82415L27.3266 9.82224V30.6883C27.3266 31.5409 28.0241 32.2299 28.8748 32.2299C29.7264 32.2299 30.4163 31.5409 30.4163 30.6883V18.8165H31.5563V30.6883C31.5563 31.5409 32.2472 32.2299 33.096 32.2299C33.9495 32.2299 34.6489 31.5409 34.6489 30.6883V9.82224L35.6462 9.82415L37.6045 16.9562C37.7111 17.3073 38.0042 17.5395 38.3553 17.629C38.3705 17.6328 38.3781 17.6394 38.3905 17.6432C38.7026 17.7136 40.1414 18.1219 41.1976 18.4235V31.3649C41.2094 31.6447 41.3288 31.9092 41.5309 32.1031C41.7331 32.297 42.0024 32.4052 42.2824 32.4052C42.5625 32.4052 42.8318 32.297 43.0339 32.1031C43.2361 31.9092 43.3555 31.6447 43.3672 31.3649V24.8999H44.216V31.3649C44.216 31.9625 44.7004 32.4468 45.298 32.4468C45.8956 32.4468 46.3866 31.9625 46.3866 31.3649V19.2761H47.2192V23.3717C47.2192 23.8218 47.5837 24.1834 48.0261 24.1834C48.1319 24.1829 48.2366 24.1615 48.334 24.1203C48.4315 24.0792 48.5198 24.0191 48.594 23.9437C48.6681 23.8682 48.7265 23.7788 48.766 23.6806C48.8054 23.5825 48.8249 23.4775 48.8236 23.3717V18.7128C48.8255 17.4082 47.6769 16.3491 46.3723 16.3491H46.3704Z" fill="#0F5F9C"/>
</svg>
