<svg width="48" height="56" viewBox="0 0 48 56" fill="none" xmlns="http://www.w3.org/2000/svg">
<path d="M48 33.6934C48.0043 31.1914 47.3752 28.7292 46.1714 26.5367C46.615 25.8864 46.8626 25.1221 46.8847 24.3348C46.9068 23.5476 46.7024 22.7706 46.2959 22.0963C45.8893 21.4221 45.2978 20.8791 44.5918 20.532C43.8858 20.1849 43.095 20.0483 42.3136 20.1385C42.6237 19.5102 42.8724 18.8503 43.0562 18.168L44.417 13.0989C45.1589 10.7377 45.0068 8.18569 43.9896 5.92965C42.9725 3.67362 41.1615 1.87145 38.9022 0.866938C36.6428 -0.137577 34.0933 -0.274137 31.7398 0.483306C29.3863 1.24075 27.3937 2.83918 26.142 4.9737C24.9957 3.39153 23.3236 2.2705 21.4259 1.81199C19.5283 1.35349 17.5296 1.58757 15.7889 2.47217C14.0481 3.35678 12.6795 4.83393 11.9288 6.63826C11.1781 8.44259 11.0945 10.4558 11.6932 12.3163H7.44001C0.0921307 12.3163 -2.79281 21.8579 3.32052 25.9382L6.92205 28.3436L4.41026 38.2105C4.09626 39.4012 4.06191 40.6485 4.30992 41.8546C4.55793 43.0608 5.08155 44.1931 5.83974 45.1627C6.83044 46.4414 8.18233 47.3922 9.71974 47.8916V54.1411C9.71974 54.6341 9.91533 55.1069 10.2635 55.4555C10.6116 55.8042 11.0838 56 11.5762 56H46.1435C46.6359 56 47.1081 55.8042 47.4562 55.4555C47.8044 55.1069 48 54.6341 48 54.1411V33.6934ZM22.0095 48.2856H27.0591C28.1345 48.2858 29.1669 47.8632 29.9343 47.1088C30.7016 46.3544 31.1424 45.3285 31.1619 44.2519C31.1621 43.701 31.0536 43.1555 30.8426 42.6467C30.6317 42.1379 30.3223 41.6759 29.9324 41.2873C29.5425 40.8986 29.0798 40.5909 28.5707 40.3819C28.0617 40.1729 27.5164 40.0667 26.9663 40.0694H22.0095V34.9407C22.0096 34.6348 21.9342 34.3335 21.7901 34.0637C21.646 33.7939 21.4376 33.5639 21.1834 33.3941L5.37933 22.845C2.3236 20.8039 3.76607 16.034 7.44001 16.034H12.7086L13.1542 17.6884C13.579 19.2711 14.4425 20.7011 15.6449 21.813C16.8473 22.9248 18.3395 23.6732 19.9488 23.9715C20.9953 24.1548 22.0683 24.12 23.1007 23.8693C24.1331 23.6185 25.1027 23.1572 25.9489 22.5141C26.051 22.5327 26.1569 22.5401 26.2645 22.5401H33.1483C33.8593 22.5401 34.5536 22.607 35.2275 22.7335L30.5678 24.5291C29.6773 24.8755 28.9354 25.5223 28.4701 26.3578C28.0048 27.1933 27.8453 28.1652 28.0191 29.1058C28.1929 30.0465 28.6891 30.8969 29.4222 31.5105C30.1552 32.124 31.079 32.4621 32.0344 32.4666C32.5431 32.4666 33.0462 32.3718 33.5196 32.1877L43.0228 28.5257C43.8304 30.0686 44.2871 31.829 44.2871 33.6934V52.2822H22.0095V48.2856ZM28.7021 18.8224C29.3669 17.1081 29.4683 15.2262 28.9917 13.4502L28.16 10.437L28.6055 8.77511L28.6167 8.7305C28.7975 7.88847 29.1473 7.09201 29.6449 6.38946C30.1424 5.68692 30.7774 5.09293 31.5112 4.64355C32.245 4.19417 33.0623 3.89878 33.9136 3.77529C34.7648 3.65181 35.6323 3.70281 36.4633 3.92519C37.2943 4.14758 38.0714 4.53673 38.7477 5.069C39.4239 5.60128 39.9851 6.26559 40.3971 7.02161C40.8091 7.77764 41.0635 8.60961 41.1446 9.46704C41.2258 10.3245 41.1321 11.1895 40.8693 12.0096L40.8563 12.0505L39.4695 17.2089C39.2263 18.1203 38.7964 18.9711 38.2071 19.7072C36.5851 19.1198 34.8731 18.8204 33.1483 18.8224H28.7021Z" fill="#92CCF0"/>
</svg>
