<svg width="57" height="57" viewBox="0 0 57 57" fill="none" xmlns="http://www.w3.org/2000/svg">
<path d="M15.8333 6.33333C15.8333 4.65363 16.5006 3.04272 17.6883 1.85499C18.8761 0.66726 20.487 0 22.1667 0H34.8333C36.513 0 38.1239 0.66726 39.3117 1.85499C40.4994 3.04272 41.1667 4.65363 41.1667 6.33333V15.8333H50.6667C52.3464 15.8333 53.9573 16.5006 55.145 17.6883C56.3327 18.8761 57 20.487 57 22.1667V34.8333C57 36.513 56.3327 38.1239 55.145 39.3117C53.9573 40.4994 52.3464 41.1667 50.6667 41.1667H41.1667V50.6667C41.1667 52.3464 40.4994 53.9573 39.3117 55.145C38.1239 56.3327 36.513 57 34.8333 57H22.1667C20.487 57 18.8761 56.3327 17.6883 55.145C16.5006 53.9573 15.8333 52.3464 15.8333 50.6667V41.1667H6.33333C4.65363 41.1667 3.04272 40.4994 1.85499 39.3117C0.66726 38.1239 0 36.513 0 34.8333V22.1667C0 20.487 0.66726 18.8761 1.85499 17.6883C3.04272 16.5006 4.65363 15.8333 6.33333 15.8333H15.8333V6.33333Z" fill="#0F5F9C"/>
</svg>
