<svg width="64" height="56" viewBox="0 0 64 56" fill="none" xmlns="http://www.w3.org/2000/svg">
<path fill-rule="evenodd" clip-rule="evenodd" d="M26.8438 11.3414C27.0856 10.894 27.445 10.5212 27.8831 10.2631C28.3213 10.005 28.8217 9.8715 29.3302 9.87699L34.8612 9.96128C35.3683 9.9724 35.8628 10.1215 36.2916 10.3925C36.7203 10.6635 37.0672 11.0461 37.2948 11.4994L39.5072 15.9453L43.4158 15.6134C43.9163 15.5737 44.4183 15.6697 44.8688 15.8912C45.3193 16.1128 45.7018 16.4518 45.9759 16.8724L48.7677 21.2024C49.0676 21.6687 49.2204 22.2143 49.2063 22.7685C49.1922 23.3227 49.0119 23.8599 48.6887 24.3103L46.6343 27.1864L48.8204 30.0731C49.4999 30.9686 49.5684 32.1907 48.989 33.1599L46.3551 37.5742C46.0934 38.0071 45.7189 38.3608 45.2716 38.5974C44.8244 38.834 44.3214 38.9446 43.8162 38.9174L39.6811 38.6646L37.1368 43.8743C36.9065 44.3374 36.5521 44.7274 36.1131 45.0009C35.674 45.2743 35.1677 45.4205 34.6505 45.423H28.9509C28.4346 45.4195 27.9293 45.2729 27.4913 44.9995C27.0533 44.7261 26.6997 44.3366 26.4698 43.8743L24.0783 38.9806L19.6535 39.381C19.1435 39.4238 18.6315 39.3256 18.1734 39.097C17.7154 38.8685 17.3291 38.5185 17.0566 38.0852L14.2595 33.5813C13.9628 33.1033 13.819 32.5462 13.8472 31.9843C13.8755 31.4224 14.0744 30.8824 14.4175 30.4366L16.946 27.1443L14.9127 24.305C14.5903 23.8541 14.4109 23.3166 14.3978 22.7624C14.3846 22.2082 14.5383 21.6629 14.8389 21.1971L17.6308 16.8671C17.9044 16.4473 18.286 16.1089 18.7355 15.8874C19.1851 15.6659 19.6859 15.5694 20.1856 15.6082L24.3839 15.9664L26.8438 11.3414ZM29.9939 13.8383L27.5076 18.5159C27.2509 18.9923 26.8614 19.3838 26.3863 19.6429C25.9112 19.9019 25.3711 20.0173 24.8316 19.975L20.5648 19.6116L18.5947 22.6668L20.6702 25.564C21.0155 26.0459 21.1967 26.6261 21.1872 27.2188C21.1777 27.8116 20.978 28.3856 20.6175 28.8563L18.0469 32.1959L20.0275 35.3881L24.5366 34.9772C25.0953 34.9255 25.6566 35.0449 26.1458 35.3196C26.6351 35.5944 27.0292 36.0114 27.2758 36.5154L29.6936 41.4722H33.9077L36.4783 36.2204C36.7212 35.7327 37.1015 35.3266 37.5723 35.0524C38.0431 34.7781 38.5839 34.6476 39.128 34.677L43.3315 34.9298L45.1857 31.8219L42.9523 28.8721C42.597 28.4017 42.4013 27.8302 42.3937 27.2407C42.3861 26.6513 42.567 26.0749 42.9101 25.5956L45.0119 22.6668L43.0418 19.6116L39.0384 19.9487C38.4851 19.9959 37.9305 19.8754 37.4466 19.6029C36.9628 19.3305 36.5721 18.9186 36.3256 18.4211L34.0763 13.9015L29.9939 13.8383Z" fill="#92CCF0"/>
<path d="M54.167 35.0299C52.5691 39.9628 49.3978 44.2356 45.1391 47.1936C40.8804 50.1517 35.7692 51.6317 30.5889 51.4069C25.4085 51.1822 20.4448 49.265 16.4583 45.9492C12.4718 42.6335 9.68245 38.102 8.51776 33.0493L13.0005 32.1643L4.46695 23.3358L0 34.7507L4.72506 33.8236C6.04374 39.755 9.27912 45.0869 13.9312 48.9955C18.5834 52.9041 24.3933 55.1719 30.4631 55.4482C36.533 55.7246 42.5249 53.9942 47.513 50.5245C52.5011 47.0548 56.2076 42.039 58.0598 36.252L54.167 35.0299ZM58.5708 21.6501C57.2514 15.719 54.0155 10.3875 49.363 6.47943C44.7105 2.57136 38.9005 0.304274 32.8307 0.0285098C26.7609 -0.247254 20.7692 1.48365 15.7815 4.95375C10.7938 8.42385 7.08774 13.44 5.23602 19.227L8.99184 20.4491C10.5893 15.5162 13.7601 11.2431 18.0184 8.28462C22.2768 5.32618 27.3877 3.8456 32.568 4.06976C37.7483 4.29393 42.7122 6.21047 46.6991 9.5257C50.6859 12.8409 53.4758 17.372 54.6411 22.4245L50.1584 23.3147L58.6919 32.1222L63.2116 20.723L58.5708 21.6501Z" fill="#92CCF0"/>
<path fill-rule="evenodd" clip-rule="evenodd" d="M31.6116 25.6797C31.0877 25.6797 30.5853 25.8878 30.2148 26.2583C29.8444 26.6287 29.6363 27.1312 29.6363 27.6551C29.6363 28.179 29.8444 28.6814 30.2148 29.0519C30.5853 29.4223 31.0877 29.6304 31.6116 29.6304C32.1355 29.6304 32.638 29.4223 33.0084 29.0519C33.3789 28.6814 33.587 28.179 33.587 27.6551C33.587 27.1312 33.3789 26.6287 33.0084 26.2583C32.638 25.8878 32.1355 25.6797 31.6116 25.6797ZM25.6855 27.6551C25.6855 26.0834 26.3099 24.5761 27.4213 23.4647C28.5326 22.3534 30.0399 21.729 31.6116 21.729C33.1833 21.729 34.6906 22.3534 35.802 23.4647C36.9134 24.5761 37.5377 26.0834 37.5377 27.6551C37.5377 29.2268 36.9134 30.7341 35.802 31.8455C34.6906 32.9568 33.1833 33.5812 31.6116 33.5812C30.0399 33.5812 28.5326 32.9568 27.4213 31.8455C26.3099 30.7341 25.6855 29.2268 25.6855 27.6551Z" fill="#92CCF0"/>
</svg>
