<svg width="64" height="64" viewBox="0 0 64 64" fill="none" xmlns="http://www.w3.org/2000/svg">
<path d="M0.5 32C0.5 14.603 14.603 0.5 32 0.5C49.397 0.5 63.5 14.603 63.5 32C63.5 49.397 49.397 63.5 32 63.5C14.603 63.5 0.5 49.397 0.5 32Z" fill="white" stroke="#0F5F9C"/>
<path d="M39.0001 41L39.0001 23C38.9995 22.8177 38.9493 22.6391 38.8547 22.4833C38.7602 22.3275 38.6249 22.2004 38.4636 22.1158C38.3022 22.0311 38.1207 21.9921 37.9388 22.0029C37.7569 22.0137 37.5814 22.0738 37.4311 22.177L24.4311 31.177C23.8921 31.55 23.8921 32.448 24.4311 32.822L37.4311 41.822C37.581 41.9262 37.7567 41.9872 37.9389 41.9986C38.1211 42.01 38.303 41.9712 38.4647 41.8865C38.6264 41.8017 38.7619 41.6743 38.8562 41.518C38.9506 41.3617 39.0004 41.1826 39.0001 41Z" fill="#0F5F9C"/>
</svg>
