<svg width="110" height="80" viewBox="0 0 110 80" fill="none" xmlns="http://www.w3.org/2000/svg">
<path d="M26.2094 80C41.2996 80 52.4188 70.1961 52.4188 54.902C52.4188 48.6274 51.6245 43.9216 44.6751 29.2157L30.7762 0H2.97834L12.9061 33.1373C4.9639 36.8627 0 44.5098 0 54.902C0 70.1961 11.1191 80 26.2094 80ZM83.7906 80C98.8809 80 110 70.1961 110 54.902C110 48.6274 109.206 43.9216 102.256 29.2157L88.3574 0H60.5596L70.4874 33.1373C62.5451 36.8627 57.5812 44.5098 57.5812 54.902C57.5812 70.1961 68.7004 80 83.7906 80Z" fill="#92CCF0" fill-opacity="0.25"/>
</svg>
