<svg width="50" height="45" viewBox="0 0 50 45" fill="none" xmlns="http://www.w3.org/2000/svg">
<path d="M48.7903 9.22186C48.0146 7.41722 46.896 5.78189 45.4971 4.40744C44.0972 3.02886 42.4468 1.93331 40.6354 1.18039C38.7572 0.396492 36.7427 -0.00472274 34.7088 4.19445e-05C31.8555 4.19445e-05 29.0716 0.785001 26.6524 2.2677C26.0736 2.62239 25.5238 3.01196 25.0029 3.43642C24.482 3.01196 23.9321 2.62239 23.3534 2.2677C20.9341 0.785001 18.1502 4.19445e-05 15.2969 4.19445e-05C13.2423 4.19445e-05 11.2513 0.395429 9.37029 1.18039C7.55295 1.93627 5.91503 3.02359 4.50862 4.40744C3.10793 5.78034 1.98905 7.41605 1.21542 9.22186C0.410927 11.0999 0 13.0943 0 15.1468C0 17.0831 0.393564 19.1007 1.1749 21.1532C1.82891 22.8685 2.76652 24.6478 3.96457 26.4444C5.86294 29.2877 8.47319 32.2531 11.7143 35.2592C17.0853 40.2423 22.4042 43.6845 22.6299 43.824L24.0016 44.7078C24.6093 45.0974 25.3906 45.0974 25.9983 44.7078L27.37 43.824C27.5958 43.6787 32.9089 40.2423 38.2856 35.2592C41.5267 32.2531 44.137 29.2877 46.0354 26.4444C47.2334 24.6478 48.1768 22.8685 48.825 21.1532C49.6064 19.1007 49.9999 17.0831 49.9999 15.1468C50.0057 13.0943 49.5948 11.0999 48.7903 9.22186Z" fill="#92CCF0"/>
</svg>
