<svg width="64" height="64" viewBox="0 0 64 64" fill="none" xmlns="http://www.w3.org/2000/svg">
<path d="M0.5 32C0.5 14.603 14.603 0.5 32 0.5C49.397 0.5 63.5 14.603 63.5 32C63.5 49.397 49.397 63.5 32 63.5C14.603 63.5 0.5 49.397 0.5 32Z" fill="white" stroke="#0F5F9C"/>
<path d="M24.9999 41L24.9999 23C25.0005 22.8177 25.0507 22.6391 25.1453 22.4833C25.2398 22.3275 25.3751 22.2004 25.5364 22.1158C25.6978 22.0311 25.8793 21.9921 26.0612 22.0029C26.2431 22.0137 26.4186 22.0738 26.5689 22.177L39.5689 31.177C40.1079 31.55 40.1079 32.448 39.5689 32.822L26.5689 41.822C26.419 41.9262 26.2433 41.9872 26.0611 41.9986C25.8789 42.01 25.697 41.9712 25.5353 41.8865C25.3736 41.8017 25.2381 41.6743 25.1438 41.518C25.0494 41.3617 24.9996 41.1826 24.9999 41Z" fill="#0F5F9C"/>
</svg>
