<svg width="218" height="36" viewBox="0 0 218 36" fill="none" xmlns="http://www.w3.org/2000/svg">
<path d="M19 28.741L30.742 35.7616L27.626 22.5298L38 13.627L24.339 12.4789L19 0L13.661 12.4789L0 13.627L10.374 22.5298L7.258 35.7616L19 28.741Z" fill="#FF9B14"/>
<path d="M64 28.741L75.742 35.7616L72.626 22.5298L83 13.627L69.339 12.4789L64 0L58.661 12.4789L45 13.627L55.374 22.5298L52.258 35.7616L64 28.741Z" fill="#FF9B14"/>
<path d="M109 28.741L120.742 35.7616L117.626 22.5298L128 13.627L114.339 12.4789L109 0L103.661 12.4789L90 13.627L100.374 22.5298L97.258 35.7616L109 28.741Z" fill="#FF9B14"/>
<path d="M154 28.741L165.742 35.7616L162.626 22.5298L173 13.627L159.339 12.4789L154 0L148.661 12.4789L135 13.627L145.374 22.5298L142.258 35.7616L154 28.741Z" fill="#FF9B14"/>
<path d="M199 28.741L210.742 35.7616L207.626 22.5298L218 13.627L204.339 12.4789L199 0L193.661 12.4789L180 13.627L190.374 22.5298L187.258 35.7616L199 28.741Z" fill="#FF9B14"/>
</svg>
