<svg width="42" height="14" viewBox="0 0 42 14" fill="none" xmlns="http://www.w3.org/2000/svg">
<path d="M3.36084 10.984V2.416H6.13284V10.984H3.36084ZM0.300836 8.014V5.386H9.17484V8.014H0.300836ZM12.2517 13V1.678L13.7817 3.154H9.91171V0.399999H15.8157V13H12.2517ZM23.2726 13.252C22.1926 13.252 21.2326 12.994 20.3926 12.478C19.5646 11.962 18.9106 11.218 18.4306 10.246C17.9506 9.274 17.7106 8.092 17.7106 6.7C17.7106 5.308 17.9506 4.126 18.4306 3.154C18.9106 2.182 19.5646 1.438 20.3926 0.922C21.2326 0.405999 22.1926 0.147999 23.2726 0.147999C24.3406 0.147999 25.2886 0.405999 26.1166 0.922C26.9566 1.438 27.6166 2.182 28.0966 3.154C28.5766 4.126 28.8166 5.308 28.8166 6.7C28.8166 8.092 28.5766 9.274 28.0966 10.246C27.6166 11.218 26.9566 11.962 26.1166 12.478C25.2886 12.994 24.3406 13.252 23.2726 13.252ZM23.2726 10.336C23.6566 10.336 23.9926 10.216 24.2806 9.976C24.5806 9.736 24.8146 9.352 24.9826 8.824C25.1506 8.284 25.2346 7.576 25.2346 6.7C25.2346 5.812 25.1506 5.104 24.9826 4.576C24.8146 4.048 24.5806 3.664 24.2806 3.424C23.9926 3.184 23.6566 3.064 23.2726 3.064C22.8886 3.064 22.5466 3.184 22.2466 3.424C21.9586 3.664 21.7246 4.048 21.5446 4.576C21.3766 5.104 21.2926 5.812 21.2926 6.7C21.2926 7.576 21.3766 8.284 21.5446 8.824C21.7246 9.352 21.9586 9.736 22.2466 9.976C22.5466 10.216 22.8886 10.336 23.2726 10.336ZM35.5949 13.252C34.5149 13.252 33.5549 12.994 32.7149 12.478C31.8869 11.962 31.2329 11.218 30.7529 10.246C30.2729 9.274 30.0329 8.092 30.0329 6.7C30.0329 5.308 30.2729 4.126 30.7529 3.154C31.2329 2.182 31.8869 1.438 32.7149 0.922C33.5549 0.405999 34.5149 0.147999 35.5949 0.147999C36.6629 0.147999 37.6109 0.405999 38.4389 0.922C39.2789 1.438 39.9389 2.182 40.4189 3.154C40.8989 4.126 41.1389 5.308 41.1389 6.7C41.1389 8.092 40.8989 9.274 40.4189 10.246C39.9389 11.218 39.2789 11.962 38.4389 12.478C37.6109 12.994 36.6629 13.252 35.5949 13.252ZM35.5949 10.336C35.9789 10.336 36.3149 10.216 36.6029 9.976C36.9029 9.736 37.1369 9.352 37.3049 8.824C37.4729 8.284 37.5569 7.576 37.5569 6.7C37.5569 5.812 37.4729 5.104 37.3049 4.576C37.1369 4.048 36.9029 3.664 36.6029 3.424C36.3149 3.184 35.9789 3.064 35.5949 3.064C35.2109 3.064 34.8689 3.184 34.5689 3.424C34.2809 3.664 34.0469 4.048 33.8669 4.576C33.6989 5.104 33.6149 5.812 33.6149 6.7C33.6149 7.576 33.6989 8.284 33.8669 8.824C34.0469 9.352 34.2809 9.736 34.5689 9.976C34.8689 10.216 35.2109 10.336 35.5949 10.336Z" fill="black"/>
</svg>
