<svg width="32" height="26" viewBox="0 0 32 26" fill="none" xmlns="http://www.w3.org/2000/svg">
<path d="M30.8966 23.8333H29.7931V13C29.7931 12.4254 29.5606 11.8743 29.1467 11.4679C28.7328 11.0616 28.1715 10.8333 27.5862 10.8333H19.8621V2.16667C19.8621 1.59203 19.6296 1.04093 19.2157 0.634602C18.8018 0.228273 18.2405 0 17.6552 0H4.41379C3.82849 0 3.26715 0.228273 2.85328 0.634602C2.43941 1.04093 2.2069 1.59203 2.2069 2.16667V23.8333H1.10345C0.810796 23.8333 0.530129 23.9475 0.323192 24.1506C0.116256 24.3538 0 24.6293 0 24.9167C0 25.204 0.116256 25.4795 0.323192 25.6827C0.530129 25.8859 0.810796 26 1.10345 26H30.8966C31.1892 26 31.4699 25.8859 31.6768 25.6827C31.8837 25.4795 32 25.204 32 24.9167C32 24.6293 31.8837 24.3538 31.6768 24.1506C31.4699 23.9475 31.1892 23.8333 30.8966 23.8333ZM27.5862 13V23.8333H19.8621V13H27.5862ZM4.41379 2.16667H17.6552V23.8333H15.4483V17.3333C15.4483 17.046 15.332 16.7705 15.1251 16.5673C14.9181 16.3641 14.6375 16.25 14.3448 16.25H7.72414C7.43149 16.25 7.15082 16.3641 6.94388 16.5673C6.73695 16.7705 6.62069 17.046 6.62069 17.3333V23.8333H4.41379V2.16667ZM13.2414 23.8333H8.82759V18.4167H13.2414V23.8333ZM6.62069 8.66667C6.62069 8.37935 6.73695 8.1038 6.94388 7.90063C7.15082 7.69747 7.43149 7.58333 7.72414 7.58333H9.93103V5.41667C9.93103 5.12935 10.0473 4.8538 10.2542 4.65063C10.4612 4.44747 10.7418 4.33333 11.0345 4.33333C11.3271 4.33333 11.6078 4.44747 11.8147 4.65063C12.0217 4.8538 12.1379 5.12935 12.1379 5.41667V7.58333H14.3448C14.6375 7.58333 14.9181 7.69747 15.1251 7.90063C15.332 8.1038 15.4483 8.37935 15.4483 8.66667C15.4483 8.95398 15.332 9.22953 15.1251 9.4327C14.9181 9.63586 14.6375 9.75 14.3448 9.75H12.1379V11.9167C12.1379 12.204 12.0217 12.4795 11.8147 12.6827C11.6078 12.8859 11.3271 13 11.0345 13C10.7418 13 10.4612 12.8859 10.2542 12.6827C10.0473 12.4795 9.93103 12.204 9.93103 11.9167V9.75H7.72414C7.43149 9.75 7.15082 9.63586 6.94388 9.4327C6.73695 9.22953 6.62069 8.95398 6.62069 8.66667Z" fill="black"/>
</svg>
