<svg width="26" height="30" viewBox="0 0 26 30" fill="none" xmlns="http://www.w3.org/2000/svg">
<path d="M2.26316 10.3268H9.21053V2.43489C9.21053 2.05434 9.34361 1.68937 9.5805 1.42027C9.81738 1.15118 10.1387 1 10.4737 1H15.5263C15.8613 1 16.1826 1.15118 16.4195 1.42027C16.6564 1.68937 16.7895 2.05434 16.7895 2.43489V10.3268H23.7368C24.0719 10.3268 24.3931 10.478 24.63 10.7471C24.8669 11.0162 25 11.3811 25 11.7617V17.5013C25 17.8818 24.8669 18.2468 24.63 18.5159C24.3931 18.785 24.0719 18.9362 23.7368 18.9362H16.7895V26.8281C16.7895 27.2087 16.6564 27.5736 16.4195 27.8427C16.1826 28.1118 15.8613 28.263 15.5263 28.263H10.4737C10.1387 28.263 9.81738 28.1118 9.5805 27.8427C9.34361 27.5736 9.21053 27.2087 9.21053 26.8281V18.9362H2.26316C1.92815 18.9362 1.60686 18.785 1.36997 18.5159C1.13308 18.2468 1 17.8818 1 17.5013V11.7617C1 11.3811 1.13308 11.0162 1.36997 10.7471C1.60686 10.478 1.92815 10.3268 2.26316 10.3268Z" fill="black" stroke="black" stroke-width="2" stroke-linecap="round" stroke-linejoin="round"/>
</svg>
