<svg width="34" height="34" viewBox="0 0 34 34" fill="none" xmlns="http://www.w3.org/2000/svg">
<path d="M17 32C25.2843 32 32 25.2842 32 17C32 8.7157 25.2843 2 17 2C8.71573 2 2 8.7157 2 17C2 25.2842 8.71573 32 17 32Z" stroke="black" stroke-width="2.5"/>
<path d="M3.5 22.239C5.47394 23.0306 6.89495 23.0306 7.76293 22.239C9.06493 21.0517 7.94143 17.4482 9.7649 16.4543C11.5883 15.4605 14.3665 19.8659 16.9631 18.4163C19.5597 16.9667 16.7185 13.1015 18.5204 11.5346C20.3224 9.96759 22.6655 11.7348 23.0751 9.11469C23.4847 6.4946 21.1641 7.63097 20.7188 5.15501C20.4219 3.5044 20.4219 2.63644 20.7188 2.55115" stroke="black" stroke-width="2.5" stroke-linecap="round"/>
<path d="M20.7643 31.5127C19.3588 30.0742 18.8527 28.7371 19.2463 27.5013C19.8367 25.6476 20.8106 25.7571 21.2353 24.611C21.6598 23.4648 20.4604 21.8323 23.1219 20.4368C24.8962 19.5064 27.3359 20.5844 30.4408 23.6706" stroke="black" stroke-width="2.5" stroke-linecap="round"/>
</svg>
