<svg width="30" height="28" viewBox="0 0 30 28" fill="none" xmlns="http://www.w3.org/2000/svg">
<path d="M24 15.3354V11.9276H30V15.3354H24ZM25.8 27.263L21 23.1735L22.8 20.4472L27.6 24.5367L25.8 27.263ZM22.8 6.81575L21 4.08945L25.8 0L27.6 2.7263L22.8 6.81575ZM4.5 25.5591V18.7433H3C2.175 18.7433 1.469 18.4099 0.882 17.7431C0.295 17.0763 0.001 16.2737 0 15.3354V11.9276C0 10.9904 0.294 10.1884 0.882 9.5216C1.47 8.85479 2.176 8.52082 3 8.51968H9L16.5 3.40787V23.8551L9 18.7433H7.5V25.5591H4.5ZM18 19.3397V7.92331C18.675 8.60488 19.219 9.43583 19.632 10.4162C20.045 11.3965 20.251 12.4683 20.25 13.6315C20.249 14.7947 20.0425 15.8671 19.6305 16.8485C19.2185 17.83 18.675 18.6604 18 19.3397Z" fill="black"/>
</svg>
