<svg width="29" height="31" viewBox="0 0 29 31" fill="none" xmlns="http://www.w3.org/2000/svg">
<path d="M18.6591 0C17.8327 0.000360268 17.0402 0.36983 16.4559 1.02721C15.8715 1.68458 15.5431 2.57608 15.5428 3.50575C15.5434 4.14134 15.6975 4.76482 15.9886 5.30952C16.2798 5.85422 16.697 6.29967 17.1958 6.59825L15.4775 10.2658C15.0573 10.1118 14.6182 10.0329 14.1762 10.032C13.0529 10.032 11.9757 10.5339 11.1814 11.4274C10.3872 12.321 9.94096 13.5328 9.94096 14.7965C9.94286 15.1372 9.97729 15.4767 10.0437 15.8092L6.62408 17.2174C6.30124 16.6394 5.85336 16.1628 5.32231 15.8324C4.79127 15.5019 4.19441 15.3284 3.58754 15.328C2.63637 15.3283 1.72424 15.7535 1.05155 16.51C0.378857 17.2665 0.000640463 18.2924 0 19.3625C0 20.4332 0.378099 21.4601 1.05112 22.2173C1.72414 22.9744 2.63695 23.3997 3.58875 23.3997C4.54034 23.3994 5.45284 22.9739 6.1256 22.2168C6.79836 21.4597 7.17629 20.433 7.17629 19.3625C7.17461 19.0725 7.14544 18.7836 7.08929 18.5007L10.3711 16.879C10.7178 17.6828 11.2587 18.3605 11.9319 18.8345C12.605 19.3086 13.3832 19.5599 14.1774 19.5596C15.1078 19.5588 16.012 19.2129 16.7499 18.5754L19.5001 21.5211C18.9102 22.4928 18.5948 23.6422 18.595 24.8189C18.595 25.5875 18.7296 26.3486 18.9911 27.0587C19.2526 27.7687 19.6359 28.4139 20.1191 28.9573C20.6022 29.5008 21.1758 29.9318 21.8071 30.2258C22.4383 30.5198 23.1149 30.671 23.7981 30.6709C25.1775 30.6709 26.5005 30.0545 27.476 28.9573C28.4515 27.8602 28.9997 26.3721 29 24.8202C29 23.2682 28.4519 21.7797 27.4764 20.6823C26.5009 19.5848 25.1777 18.9683 23.7981 18.9683C22.6012 18.9687 21.4411 19.434 20.5139 20.2855L17.5849 17.6157C18.1206 16.7992 18.4102 15.8113 18.4114 14.7965C18.412 14.0229 18.245 13.2608 17.9247 12.5763C17.6045 11.8917 17.1407 11.3053 16.5735 10.868L18.0283 6.93809C18.2358 6.98643 18.4472 7.01102 18.6591 7.01149C19.4859 7.01149 20.2788 6.642 20.8635 5.98429C21.4481 5.32658 21.7766 4.43453 21.7766 3.50439C21.7759 2.57472 21.4472 1.68337 20.8626 1.02625C20.2781 0.369124 19.4855 -2.79332e-07 18.6591 0Z" fill="black"/>
</svg>
