<svg width="44" height="44" viewBox="0 0 44 44" fill="none" xmlns="http://www.w3.org/2000/svg">
<path d="M42.9687 10.8627L33.139 1.03123C32.8121 0.704294 32.424 0.444951 31.9969 0.268011C31.5698 0.0910706 31.112 0 30.6497 0C30.1873 0 29.7296 0.0910706 29.3024 0.268011C28.8753 0.444951 28.4872 0.704294 28.1603 1.03123L1.03183 28.1606C0.703541 28.4863 0.443265 28.8739 0.266131 29.3011C0.0889973 29.7282 -0.00145958 30.1863 1.78091e-05 30.6487V40.4801C1.78091e-05 41.4136 0.370878 42.3089 1.03101 42.969C1.69115 43.6291 2.58649 44 3.52006 44H13.352C13.8144 44.0015 14.2725 43.911 14.6997 43.7339C15.1268 43.5568 15.5145 43.2965 15.8402 42.9682L42.9687 15.8411C43.2957 15.5142 43.555 15.1261 43.732 14.699C43.9089 14.2719 44 13.8142 44 13.3519C44 12.8896 43.9089 12.4318 43.732 12.0047C43.555 11.5776 43.2957 11.1895 42.9687 10.8627ZM4.24827 29.9205L22.8803 11.2894L26.5521 14.9611L7.92011 33.59L4.24827 29.9205ZM3.52006 34.1686L9.83193 40.4801H3.52006V34.1686ZM14.0802 39.7519L10.4083 36.0803L29.0404 17.4492L32.7122 21.1209L14.0802 39.7519ZM35.2004 18.6328L25.3685 8.80133L30.6486 3.52153L40.4805 13.3508L35.2004 18.6328Z" fill="black"/>
</svg>
