<svg width="487" height="219" viewBox="0 0 487 219" fill="none" xmlns="http://www.w3.org/2000/svg">
<path d="M11.4945 218.997C9.90813 176.085 8.32174 133.039 6.73535 89.8583C14.7761 89.6379 22.8198 89.4266 30.8605 89.2213C32.1417 123.595 33.426 157.88 34.7072 192.082C42.9685 191.327 51.2298 190.587 59.4911 189.865C59.7932 197.837 60.0984 205.802 60.4006 213.764C44.0986 215.431 27.7965 217.176 11.4945 218.997Z" fill="white"/>
<path d="M89.4089 188.537C88.859 195.913 88.309 203.296 87.7621 210.684C79.7244 211.524 71.6837 212.384 63.646 213.26C68.8342 171.009 74.0225 129.175 79.2107 87.7387C89.5087 87.4338 99.8036 87.1439 110.101 86.8631C119.009 127.133 127.917 166.76 136.825 205.787C128.73 206.557 120.635 207.345 112.54 208.151C111.328 201.049 110.114 193.929 108.902 186.798C102.405 187.365 95.9056 187.945 89.4089 188.534V188.537ZM95.1048 113.564C93.7874 130.618 92.4669 147.711 91.1494 164.846C95.7756 164.493 100.399 164.149 105.025 163.804C102.16 147.125 99.2929 130.358 96.4283 113.504C95.9872 113.522 95.546 113.543 95.1048 113.564Z" fill="white"/>
<path d="M196.017 158.318C195.667 151.896 195.316 145.467 194.966 139.036C204.986 138.465 215.002 137.916 225.022 137.381C226.131 157.452 227.243 177.486 228.352 197.486C222.242 198.003 216.13 198.528 210.02 199.062C209.467 194.026 208.914 188.984 208.361 183.935C208.08 183.848 207.796 183.76 207.515 183.675C204.859 195.711 198.713 201.701 188.475 202.656C171.137 204.307 162.996 188.836 160.893 149.311C160.727 146.177 160.561 143.04 160.391 139.903C158.264 99.9886 166.991 83.6353 190.442 83.0828C211.742 82.5604 222.339 94.8827 223.823 121.647C223.922 123.435 224.019 125.219 224.119 127.007C216.577 127.369 209.035 127.74 201.495 128.121C201.438 127.079 201.381 126.04 201.326 124.999C200.634 112.344 197.61 105.363 192.491 105.556C186.378 105.777 183.861 117.378 185.1 140.271C185.203 142.149 185.302 144.027 185.405 145.905C186.704 169.946 190.252 180.276 196.857 179.744C202.142 179.318 204.26 172.579 203.544 159.459C203.529 159.188 203.514 158.913 203.499 158.641C203.719 158.626 203.94 158.611 204.158 158.596C204.142 158.324 204.127 158.049 204.112 157.778C201.414 157.956 198.719 158.137 196.02 158.318H196.017Z" fill="#F6B21A"/>
<path d="M283.749 142.457C288.529 144.903 292.285 149.746 293.814 156.108C296.818 167.944 299.818 179.729 302.822 191.469C294.618 192.06 286.417 192.667 278.213 193.289C275.911 183.005 273.608 172.688 271.303 162.337C269.994 156.854 267.226 154.782 261.28 155.133C261.005 155.148 260.73 155.166 260.455 155.181C261.198 168.297 261.944 181.402 262.688 194.491C254.65 195.125 246.612 195.774 238.572 196.439C236.466 158.949 234.362 121.339 232.256 83.6051C242.935 83.3364 253.617 83.0827 264.295 82.8351C283.45 82.4245 293.252 91.8301 294.394 111.574C294.491 113.247 294.585 114.92 294.681 116.596C295.398 128.984 291.902 137.297 283.716 141.826C283.728 142.037 283.74 142.246 283.749 142.457ZM259.307 134.936C260.243 134.89 261.177 134.842 262.114 134.797C268.553 134.477 271.109 129.905 270.538 119.911C270.484 118.96 270.429 118.006 270.375 117.054C269.804 107.06 266.746 102.7 260.304 102.908C259.367 102.939 258.433 102.972 257.497 103.002C258.101 113.655 258.702 124.298 259.307 134.933V134.936Z" fill="#F6B21A"/>
<path d="M304.819 81.9928C312.857 81.8478 320.894 81.7059 328.932 81.5731C330.939 117.637 332.948 153.608 334.954 189.479C326.917 189.998 318.879 190.53 310.841 191.079C308.835 154.819 306.825 118.456 304.819 81.9928Z" fill="#F6B21A"/>
<path d="M368.652 161.63C369.091 170.227 369.526 178.82 369.964 187.407C361.923 187.842 353.885 188.292 345.845 188.754C344.044 153.037 342.246 117.236 340.448 81.3496C351.187 81.2288 361.923 81.1171 372.662 81.0144C391.989 80.8574 402.181 92.6362 403.444 117.166C403.556 119.313 403.665 121.46 403.777 123.604C405.034 147.977 396.077 160.432 376.584 161.292C373.94 161.404 371.299 161.519 368.655 161.633L368.652 161.63ZM367.616 141.295C368.719 141.255 369.819 141.216 370.922 141.18C377.198 140.956 380.029 134.812 379.428 123.027C379.361 121.716 379.295 120.406 379.228 119.096C378.627 107.308 375.179 101.311 368.903 101.42C367.8 101.441 366.7 101.462 365.598 101.48C366.271 114.763 366.945 128.033 367.616 141.292V141.295Z" fill="#F6B21A"/>
<path d="M437.84 140.416C438.136 148.004 438.435 155.592 438.732 163.176C447.216 162.953 455.701 162.739 464.183 162.536C464.458 169.517 464.733 176.495 465.008 183.47C448.483 183.977 431.954 184.539 415.425 185.152C414.075 150.395 412.721 115.587 411.37 80.7216C427.624 80.7608 443.877 80.8091 460.131 80.8725C460.406 87.8716 460.684 94.8676 460.959 101.861C452.749 101.888 444.539 101.921 436.329 101.957C436.577 108.271 436.825 114.585 437.07 120.895C444.452 120.811 451.834 120.732 459.219 120.66C459.472 127.118 459.729 133.574 459.983 140.029C452.601 140.15 445.219 140.28 437.834 140.416H437.84Z" fill="#F6B21A"/>
<path d="M483.589 81.3737C483.673 106.903 483.758 132.429 483.839 157.953C481.25 157.98 478.66 158.007 476.068 158.037C474.717 132.463 473.363 106.855 472.012 81.2107C475.871 81.265 479.73 81.3194 483.586 81.3737H483.589ZM475.101 183.304C474.998 179.509 474.895 175.716 474.792 171.921C478.431 171.863 482.069 171.806 485.707 171.755C485.81 175.535 485.909 179.318 486.012 183.099C482.374 183.165 478.739 183.235 475.101 183.307V183.304Z" fill="white"/>
<path d="M5.44207 25.9308L5.94065 32.3562L0.501601 32.7789L0 26.3535L5.44207 25.9338V25.9308ZM4.30591 83.9433L1.93086 40.5388L5.80769 40.2369L10.0773 83.4964L4.30591 83.9433Z" fill="white"/>
<path d="M17.6134 82.9952L13.2712 25.3148L18.6317 24.9102L22.6083 77.7263L36.5443 76.6785L36.913 81.5398L17.6164 82.9891L17.6134 82.9952Z" fill="white"/>
<path d="M38.9948 54.7091L38.6655 50.0924C37.2815 30.6381 40.4271 22.4615 49.8306 21.7912C59.0679 21.1359 63.3466 28.7842 64.7336 48.2354L65.066 52.8521C66.4499 72.3064 63.3043 80.483 54.064 81.1413C44.6635 81.8086 40.3848 74.1633 38.9948 54.7091ZM59.4487 53.1692L59.1314 48.7185C57.9771 32.5615 55.4631 26.3626 50.0996 26.743C44.8207 27.1175 43.1285 33.6183 44.2828 49.7753L44.6001 54.226C45.7544 70.383 48.35 76.5759 53.6319 76.2015C58.9924 75.818 60.603 69.3262 59.4487 53.1692Z" fill="white"/>
<path d="M105.605 58.1875L109.624 18.5996L122.333 17.7874L126.023 75.5161L117.441 76.0626L114.842 35.4058L113.936 35.4632L109.603 76.5638L102.42 77.0228L92.917 37.2205L92.0921 37.2718L94.6636 77.5179L86.2452 78.0554L82.5557 20.3267L95.5127 19.4994L104.288 58.272L105.608 58.1875H105.605Z" fill="#F6B21A"/>
<path d="M151.916 61.533L140.605 62.1792L139.496 74.6555L130.168 75.1899L137.59 16.8332L149.806 16.1327L163.848 73.2605L154.439 73.798L151.913 61.53L151.916 61.533ZM139.898 10.8276L143.86 0.504094L152.692 -0.000152588L146.83 10.432L139.895 10.8276H139.898ZM144.588 26.1995L143.763 26.2478L141.352 53.5315L150.181 53.0242L144.585 26.1995H144.588Z" fill="#F6B21A"/>
<path d="M165.661 73.2485L173.336 43.5704L163.289 15.4594L173.693 14.928L180.398 37.5828L180.894 37.5587L185.668 14.315L195.413 13.8168L188.203 42.8095L198.945 71.5485L188.294 72.092L181.274 49.7844L180.782 49.8085L176.074 72.717L165.67 73.2485H165.661Z" fill="#F6B21A"/>
<path d="M201.559 13.5511L206.925 13.3005L209.612 71.0744L204.242 71.3251L201.559 13.5511Z" fill="white"/>
<path d="M235.734 59.4466L243.234 11.7545L250.921 11.4435L253.266 69.2386L248.226 69.444L246.271 21.3081L245.528 21.3382L237.732 69.8727L233.272 70.0539L221.822 22.5521L221.164 22.5792L223.107 70.4676L218.233 70.6668L215.885 12.8687L223.651 12.5517L234.662 59.4949L235.734 59.4526V59.4466Z" fill="white"/>
<path d="M259.451 42.3898L259.3 37.764C258.66 18.2705 262.117 10.2207 271.541 9.90967C280.803 9.6047 284.782 17.413 285.423 36.9065L285.574 41.5323C286.215 61.0258 282.755 69.0786 273.496 69.3806C264.072 69.6885 260.092 61.8803 259.451 42.3898ZM279.948 41.6349L279.802 37.1752C279.271 20.985 276.995 14.6925 271.623 14.8706C266.332 15.0427 264.392 21.4741 264.924 37.6644L265.069 42.1241C265.601 58.3143 267.96 64.6038 273.251 64.4287C278.621 64.2536 280.479 57.8252 279.948 41.6349Z" fill="white"/>
<path d="M304.079 41.028L303.976 36.3992C303.544 17.2318 307.164 8.88305 315.927 8.68981C323.946 8.50864 328.156 15.3598 328.464 29.2371L328.488 30.3935L323.363 30.5083L323.333 29.3518C323.097 18.6932 320.746 13.539 316.28 13.6387C311.159 13.7534 309.24 20.6589 309.596 36.4385L309.696 40.8167C310.068 57.3421 312.437 63.4021 317.395 63.2088C322.109 63.1031 323.974 57.6893 323.68 44.7178L323.656 43.5613L328.781 43.4466L328.808 44.6061C329.165 60.5487 325.527 67.9886 317.256 68.1758C308.493 68.3721 304.505 60.1954 304.073 41.028H304.079Z" fill="white"/>
<path d="M334.48 40.3728L334.414 35.747C334.133 16.2505 337.737 8.26405 347.165 8.1312C356.424 7.99834 360.258 15.8761 360.542 35.3726L360.609 39.9984C360.89 59.4979 357.282 67.4813 348.023 67.6142C338.599 67.75 334.764 59.8723 334.48 40.3728ZM354.982 39.9923L354.919 35.5296C354.683 19.3363 352.526 13.0046 347.153 13.0831C341.862 13.1586 339.801 19.5507 340.037 35.744L340.1 40.2037C340.336 56.3969 342.575 62.7287 347.866 62.6502C353.242 62.5717 355.218 56.1826 354.982 39.9893V39.9923Z" fill="white"/>
<path d="M372.795 20.2241L373.052 66.497L368.09 66.5241L367.767 8.68073L374.3 8.6445L387.617 53.3594H388.194L387.943 8.56901L392.905 8.54184L393.225 66.3853L387.438 66.4185L373.369 20.2241H372.789H372.795Z" fill="white"/>
<path d="M408.702 66.4245L408.913 13.4545L399.075 13.4152L399.093 8.54184L424.149 8.64148L424.131 13.5179L414.289 13.4786L414.077 66.4487L408.702 66.4275V66.4245Z" fill="white"/>
<path d="M444.594 40.0406C447.555 41.0703 449.746 44.2407 450.676 48.9661L453.906 66.8623L448.368 66.7868L445.376 49.4734C444.53 44.6664 441.995 42.5679 437.2 42.5015L435.299 42.4743L434.97 66.6027L429.597 66.5302L430.383 8.60223L439.478 8.72603C448.576 8.84983 452.973 13.8681 452.834 24.0316L452.797 26.5921C452.698 34.0289 450.075 38.3769 444.594 39.9531V40.0376V40.0406ZM435.359 37.764L438.251 37.8032C444.288 37.8848 447.232 34.3701 447.334 26.7672L447.361 24.7019C447.464 17.0989 444.621 13.5088 438.583 13.4243L435.692 13.385L435.359 37.761V37.764Z" fill="white"/>
<path d="M465.797 51.5719L462.775 67.0405L457.396 66.9106L469.964 9.345L477.24 9.52013L486.997 67.6262L481.54 67.4934L479.186 51.895L465.794 51.5689L465.797 51.5719ZM473.052 15.0427L466.824 46.7196L478.482 47.0035L473.711 15.0608L473.052 15.0457V15.0427Z" fill="white"/>
</svg>
