<svg width="38" height="47" viewBox="0 0 38 47" fill="none" xmlns="http://www.w3.org/2000/svg">
<path d="M19.8249 24.999C18.6027 24.6439 17.4987 24.1311 16.3554 23.9733C12.3338 23.421 8.62775 26.3402 8.15463 30.364C7.64209 34.3877 10.4808 38.0959 14.5023 38.6482C18.4844 39.2005 22.2693 36.3996 22.8213 32.3759C22.9002 31.7447 22.9396 31.1135 22.9396 30.4823C22.9396 20.778 22.9396 11.0341 22.9396 1.32976C22.9396 0.974724 22.9396 0.659135 22.9396 0.264648H30.9826C30.9826 0.895827 30.9826 1.44811 30.9826 2.03984C30.9826 4.17007 31.85 5.15628 33.979 5.47187C34.9647 5.59022 35.9109 5.62967 37.0148 5.70857C37.0148 6.10305 37.0148 6.49754 37.0148 6.89202C37.0148 8.94335 37.0148 10.9947 37.0148 13.046C37.0148 13.5588 36.8571 13.7955 36.3446 13.7955C34.6098 13.7955 32.8356 13.7955 30.9826 13.7955C30.9826 14.1111 30.9826 14.4267 30.9826 14.7423C30.9826 20.3046 30.9826 25.8668 30.9826 31.4291C30.9826 40.0289 23.8858 46.9324 15.3303 46.8141C7.60266 46.6957 0.860728 40.6601 0.151051 33.1648C-0.63748 24.9201 4.56682 17.7404 12.4521 16.1625C14.7389 15.6891 16.9862 15.7285 19.2335 16.3203C19.47 16.3992 19.8249 16.6753 19.8249 16.8725C19.8249 19.5945 19.8249 22.3559 19.8249 25.0384V24.999Z" fill="black"/>
</svg>
